{"glyphs":{":":{"x_min":0,"x_max":187,"ha":187,"o":"m 115 452 q 115 441 103 428 q 91 416 79 416 q 68 416 68 426 q 68 430 70 438 q 73 445 77 452 q 81 459 86 464 q 92 470 97 470 q 104 470 110 464 q 115 459 115 452 z m 63 357 q 63 346 51 334 q 39 321 27 321 q 16 321 16 331 q 16 335 18 342 q 21 350 25 357 q 29 364 34 370 q 40 375 45 375 q 52 375 58 370 q 63 364 63 357 z"},"$":{"x_min":0,"x_max":454,"ha":454,"o":"m 417 763 q 424 761 438 759 q 452 757 465 752 q 478 748 488 741 q 498 734 498 724 q 498 721 494 716 q 489 711 487 709 q 479 726 462 736 q 446 747 427 747 q 421 747 413 745 l 401 736 q 381 699 362 662 q 342 626 322 589 q 333 577 346 564 q 358 551 369 536 q 380 521 387 505 q 394 489 394 472 q 394 441 377 416 q 360 390 334 368 q 308 346 277 328 q 246 310 218 294 q 189 278 168 264 q 146 251 140 239 q 135 231 121 202 q 107 174 90 143 q 74 112 60 88 q 45 64 40 64 q 36 64 33 67 l 30 87 q 49 128 70 168 q 92 207 112 248 q 93 245 76 242 q 60 240 41 240 q 31 240 19 241 q 7 242 -3 246 q -13 251 -20 258 q -27 266 -27 280 q -27 297 -14 316 q -1 336 18 352 q 38 369 59 380 q 80 390 97 390 l 102 390 q 76 362 49 335 q 22 308 1 276 q 9 274 16 272 q 23 270 31 270 q 52 270 76 274 q 100 279 120 284 q 125 285 138 306 q 152 326 169 356 q 186 387 206 423 q 225 459 242 492 q 259 526 272 552 q 285 577 290 587 l 294 593 q 284 601 274 610 q 263 619 254 630 q 245 640 239 652 q 233 663 233 677 q 233 699 244 712 q 255 726 272 734 q 288 742 308 746 q 329 751 348 756 q 367 762 382 770 q 397 778 404 793 q 406 798 412 809 q 418 820 424 831 q 431 842 438 850 q 446 859 451 859 q 456 858 460 855 q 465 852 465 847 q 457 826 442 804 q 428 783 417 763 z m 177 309 q 198 311 230 328 q 263 346 293 370 q 323 394 345 422 q 367 449 367 472 q 367 502 350 526 q 332 550 312 570 z m 301 606 q 320 640 338 674 q 357 708 374 743 q 362 741 342 737 q 321 733 301 725 q 281 717 266 705 q 252 693 252 677 q 252 668 258 658 q 263 648 270 639 q 278 630 286 622 q 295 613 301 606 z"},"?":{"x_min":0,"x_max":378,"ha":378,"o":"m 134 510 q 125 506 113 506 q 90 506 76 522 q 63 537 63 559 q 63 602 94 636 q 125 669 170 692 q 214 715 262 727 q 311 739 346 739 q 359 739 376 736 q 392 734 406 728 q 421 722 430 711 q 440 700 440 682 q 440 660 425 635 q 410 610 395 595 q 319 517 236 446 q 154 375 78 298 l 59 292 l 56 311 q 68 336 99 368 q 130 399 168 433 q 207 467 249 502 q 291 538 326 571 q 361 604 384 632 q 406 660 406 680 q 406 690 400 695 q 394 700 385 702 q 376 705 366 706 q 357 706 350 706 q 333 706 308 702 q 282 697 254 688 q 225 679 197 666 q 169 654 146 638 q 123 622 109 603 q 95 584 95 562 q 95 547 110 534 q 124 520 134 510 z m 33 202 q 28 203 22 206 q 17 209 17 216 q 17 219 20 224 q 24 229 30 234 q 35 238 40 242 q 46 245 49 245 l 58 240 q 61 237 61 231 q 56 220 50 214 q 44 207 33 202 z"},"'":{"x_min":0,"x_max":145,"ha":145,"o":"m 62 686 q 76 709 90 732 q 103 754 117 776 l 131 785 l 137 769 q 129 741 112 718 q 95 694 67 682 z"},"=":{"x_min":0,"x_max":442,"ha":442,"o":"m 28 349 q 25 368 44 371 q 104 382 168 386 q 233 390 295 390 q 325 390 351 376 q 343 371 320 367 q 297 363 265 360 q 233 356 197 354 q 161 352 128 351 q 94 350 67 350 q 40 349 28 349 z m 52 451 q 76 458 108 462 q 141 466 176 468 q 210 469 244 469 q 278 469 304 469 q 322 469 340 466 q 358 463 376 461 q 368 455 346 451 q 325 447 297 444 q 269 441 237 440 q 205 438 176 437 q 146 436 122 436 q 98 435 85 435 q 65 435 52 451 z"},"a":{"x_min":0,"x_max":332,"ha":332,"o":"m 217 462 q 224 464 230 470 q 235 475 241 475 q 244 475 248 472 q 251 469 253 467 q 244 452 232 439 q 221 426 211 412 q 201 399 194 384 q 186 369 185 349 q 203 350 222 355 q 241 360 259 366 q 277 372 295 376 q 313 381 330 381 l 341 380 q 329 369 312 359 q 294 349 274 342 q 255 334 236 329 q 216 324 200 324 q 163 324 163 359 q 163 369 166 378 q 169 388 168 398 q 153 392 133 381 q 113 370 92 360 q 71 349 51 341 q 31 333 16 333 q 5 333 -2 340 q -9 346 -9 357 q -9 380 12 403 q 32 426 61 444 q 90 463 121 474 q 152 486 173 486 q 187 486 198 480 q 210 475 217 462 z m 191 450 q 186 452 180 452 q 175 452 170 452 q 151 452 128 445 q 106 438 85 426 q 64 414 48 398 q 32 381 26 362 q 71 377 112 400 q 152 424 191 450 z"},"L":{"x_min":0,"x_max":534,"ha":534,"o":"m 506 225 q 465 194 412 162 q 360 130 303 104 q 246 79 188 62 q 129 46 77 46 q 57 46 40 50 q 22 53 8 62 q -6 70 -14 85 q -22 100 -22 123 q -22 154 -2 206 q 19 257 52 318 q 84 379 125 444 q 166 508 206 564 q 246 621 281 664 q 316 708 338 727 l 343 709 q 339 701 334 694 q 328 686 323 678 q 304 653 274 610 q 243 567 208 516 q 173 464 137 408 q 101 351 72 298 q 43 244 25 198 q 7 153 7 123 q 7 102 21 90 q 35 79 55 79 q 134 79 196 100 q 258 120 310 146 q 363 173 410 198 q 456 222 504 230 z"},"3":{"x_min":0,"x_max":532,"ha":532,"o":"m 136 686 q 132 690 128 694 q 124 699 124 705 q 124 715 136 722 q 149 730 168 736 q 188 742 212 746 q 235 749 256 752 q 278 754 296 755 q 313 756 321 756 q 333 756 360 755 q 386 754 412 749 q 439 744 459 734 q 479 723 479 705 q 479 691 456 672 q 434 652 404 632 q 375 613 346 596 q 317 579 304 570 q 322 561 352 550 q 382 539 410 524 q 439 510 460 492 q 481 473 481 450 q 481 422 462 396 q 442 369 410 346 q 379 324 340 306 q 300 287 261 274 q 222 261 186 254 q 151 247 127 247 q 110 247 88 250 q 65 253 45 261 q 25 269 11 283 q -3 297 -3 320 q -3 344 8 360 q 18 375 38 388 q 34 376 30 364 q 27 351 27 338 q 27 320 36 309 q 44 298 58 292 q 71 286 87 284 q 103 281 117 281 q 135 281 166 288 q 197 294 234 305 q 270 316 308 332 q 345 348 376 366 q 406 385 426 406 q 445 427 445 449 q 445 469 420 484 q 395 498 364 510 q 334 523 309 536 q 284 549 284 566 q 284 579 296 592 q 309 604 328 616 q 346 628 368 640 q 390 651 409 662 q 428 674 442 684 q 455 695 456 706 q 452 716 434 722 q 415 727 392 730 q 370 733 348 734 q 326 735 316 735 q 298 735 271 734 q 244 732 217 727 q 190 722 168 712 q 145 703 136 686 z"},";":{"x_min":0,"x_max":187,"ha":187,"o":"m 4 251 q 14 274 26 298 q 37 321 52 341 l 69 351 l 76 335 q 74 307 52 284 q 29 260 4 251 z m 115 452 q 115 441 103 428 q 91 416 79 416 q 68 416 68 426 q 68 430 70 438 q 73 445 77 452 q 81 459 86 464 q 92 470 97 470 q 104 470 110 464 q 115 459 115 452 z"},"J":{"x_min":0,"x_max":743,"ha":743,"o":"m 401 331 q 372 331 334 329 q 296 327 256 320 q 215 314 176 302 q 137 291 106 272 q 75 252 56 224 q 37 195 37 156 q 37 129 47 104 q 57 78 75 58 q 93 39 117 27 q 141 15 169 15 q 216 15 264 41 q 313 67 360 110 q 408 152 454 207 q 499 262 540 320 q 580 377 616 433 q 651 489 678 534 q 706 578 724 608 q 743 637 751 641 l 757 622 q 755 617 754 613 q 752 609 750 604 q 729 562 694 500 q 659 437 614 368 q 569 299 516 230 q 463 161 406 106 q 348 51 288 16 q 229 -18 171 -18 q 137 -18 106 -4 q 76 10 54 34 q 31 57 18 88 q 5 119 5 152 q 5 203 28 238 q 50 274 86 298 q 123 321 170 334 q 216 348 264 354 q 313 361 360 362 q 406 364 443 364 q 453 364 464 365 q 476 366 487 365 q 498 364 507 360 q 516 355 521 345 l 509 329 q 501 326 486 326 q 472 326 456 327 q 441 328 426 330 q 411 331 401 331 z m 207 603 q 227 614 246 615 q 264 616 286 618 q 338 621 407 630 q 476 639 548 653 q 619 667 685 687 q 751 707 796 732 q 812 741 826 752 q 840 764 856 772 l 875 765 l 875 745 q 854 721 810 700 q 767 680 712 662 q 657 644 595 630 q 533 616 474 606 q 415 596 366 590 q 316 585 285 585 q 265 585 246 588 q 227 590 208 596 z"},"V":{"x_min":0,"x_max":574,"ha":574,"o":"m -5 261 q -5 300 5 349 q 15 398 30 448 q 45 498 63 546 q 81 593 97 629 q 99 632 102 642 q 106 651 110 651 q 116 651 122 650 q 127 648 127 640 q 127 638 124 630 q 121 622 120 619 q 103 572 86 525 q 70 478 58 430 q 45 382 37 333 q 29 284 29 234 q 29 213 40 192 q 52 171 76 171 q 107 171 152 198 q 198 226 250 269 q 303 312 357 365 q 411 418 460 468 q 508 519 546 562 q 584 604 603 627 q 611 636 628 657 q 646 678 668 704 q 690 730 714 758 q 738 787 760 811 q 781 835 798 852 q 814 869 820 873 l 837 873 l 839 855 q 837 851 834 848 q 832 844 830 841 q 810 816 774 773 q 738 730 692 676 q 646 622 592 562 q 537 501 480 442 q 423 382 366 328 q 308 273 255 231 q 202 189 156 164 q 110 140 76 140 q 51 140 36 152 q 20 163 11 180 q 2 198 -2 220 q -5 241 -5 261 z"},"\"":{"x_min":0,"x_max":217,"ha":217,"o":"m 62 686 q 76 709 90 732 q 103 754 117 776 l 131 785 l 137 769 q 129 741 112 718 q 95 694 67 682 z m 119 686 q 133 709 146 732 q 160 754 174 776 l 188 785 l 194 769 q 186 741 169 718 q 152 694 124 682 z"},"7":{"x_min":0,"x_max":438,"ha":438,"o":"m 176 427 q 200 430 224 434 q 247 438 271 438 q 301 438 330 426 q 272 416 236 411 q 201 406 179 400 q 157 394 143 384 q 129 375 115 357 q 101 339 82 309 q 62 279 28 232 q 22 223 16 214 q 9 206 1 198 q -1 204 -1 208 q -1 216 14 242 q 28 267 46 296 q 65 324 82 350 q 100 375 107 384 q 103 383 90 379 q 77 375 63 371 q 49 367 37 364 q 25 361 23 361 q 18 361 16 366 q 13 371 13 375 q 13 380 20 382 q 27 385 31 387 q 44 391 61 396 q 78 400 95 405 q 112 410 127 417 q 142 424 151 433 q 195 480 234 520 q 274 561 315 598 q 356 636 400 672 q 444 707 497 743 q 455 743 418 742 q 380 742 344 741 q 307 740 270 740 q 232 739 190 739 q 177 739 164 740 q 151 741 138 743 l 126 752 q 128 754 132 759 q 136 764 138 765 q 141 766 167 768 q 193 769 232 770 q 271 771 316 772 q 362 772 403 772 q 444 773 475 774 q 506 774 516 774 q 520 774 528 774 q 537 774 545 772 q 553 771 559 768 q 565 764 565 758 q 565 753 560 748 q 556 742 552 739 q 547 734 542 731 q 536 728 531 725 q 434 667 342 590 q 250 513 176 427 z"},"S":{"x_min":0,"x_max":685,"ha":685,"o":"m 144 73 q 109 72 79 74 q 49 75 27 81 q 5 87 -7 99 q -19 111 -19 131 q -19 150 4 174 q 26 199 56 221 q 87 243 118 258 q 149 273 167 273 q 170 273 178 271 l 190 255 q 186 247 159 234 q 132 220 101 204 q 70 187 45 168 q 20 150 20 131 q 20 123 29 118 q 38 113 50 110 q 62 107 74 106 q 86 104 92 104 q 120 104 164 114 q 208 124 258 142 q 307 160 358 184 q 408 209 448 238 q 489 268 514 300 q 540 332 540 366 q 540 396 512 416 q 484 435 442 448 q 401 462 352 472 q 303 483 262 495 q 220 507 192 523 q 164 539 164 565 q 164 588 184 608 q 203 629 234 646 q 265 664 303 678 q 341 692 378 702 q 415 711 447 716 q 479 721 498 721 q 514 721 534 717 q 555 713 573 704 q 591 695 603 680 q 615 666 615 645 q 615 628 606 610 q 596 593 576 593 q 574 593 569 595 q 564 597 562 598 l 560 615 q 565 627 574 639 q 584 651 584 665 q 584 674 574 680 q 565 687 552 691 q 539 695 526 697 q 512 699 505 699 q 491 699 462 694 q 432 690 397 681 q 362 672 325 660 q 288 648 258 634 q 228 619 208 602 q 189 584 189 566 q 189 547 218 535 q 246 523 289 514 q 332 504 382 494 q 431 483 474 466 q 517 450 546 424 q 574 399 574 360 q 574 324 552 290 q 531 257 496 228 q 461 198 416 173 q 371 148 323 128 q 275 109 228 94 q 182 80 144 73 z"},"Z":{"x_min":0,"x_max":715,"ha":715,"o":"m 71 552 q 68 558 68 564 q 68 578 93 592 q 118 606 157 618 q 196 631 242 642 q 289 654 332 662 q 376 670 410 674 q 444 679 458 679 q 471 679 486 678 q 502 676 516 670 q 529 665 538 655 q 547 645 547 628 q 547 606 526 576 q 506 545 472 509 q 437 473 392 434 q 347 395 298 356 q 250 316 200 278 q 151 241 108 210 q 65 178 31 154 q -3 130 -20 117 l -17 112 q 55 134 132 160 q 210 187 290 210 q 369 232 448 247 q 528 262 604 262 l 665 261 q 663 259 658 256 q 652 253 649 252 q 488 218 332 182 q 176 145 20 92 q 6 87 -11 82 q -28 77 -42 77 q -53 77 -60 82 q -68 88 -68 99 q -68 108 -43 130 q -18 153 23 185 q 64 217 116 256 q 169 294 224 336 q 279 378 332 420 q 384 462 425 500 q 466 538 491 570 q 516 602 516 624 q 516 633 508 638 q 501 644 490 646 q 480 648 470 648 q 459 649 452 649 q 402 649 354 640 q 305 630 258 616 q 211 601 164 584 q 118 567 71 552 z"},"x":{"x_min":0,"x_max":233,"ha":233,"o":"m 65 428 q 56 445 47 462 q 38 480 28 497 l 31 509 l 43 507 q 56 494 65 476 q 74 457 83 441 q 96 450 116 465 q 137 480 162 498 q 186 515 212 533 q 239 551 264 566 q 288 582 309 593 q 330 604 343 607 l 356 600 l 352 586 q 335 575 318 568 q 300 562 283 551 q 235 519 188 486 q 141 453 93 420 q 107 378 123 336 q 139 293 139 247 l 138 227 q 128 248 121 270 q 114 293 107 316 q 100 338 92 360 q 84 381 73 402 q 68 398 53 386 q 38 374 19 358 q 0 342 -22 324 q -43 307 -62 292 q -80 278 -92 268 q -105 259 -106 259 l -118 263 q -81 312 -32 350 q 17 389 65 428 z"},")":{"x_min":0,"x_max":295,"ha":295,"o":"m -100 99 q -27 149 34 197 q 94 245 137 302 q 180 358 204 429 q 227 500 227 597 q 227 641 222 676 q 218 712 208 744 q 197 776 180 807 q 164 838 141 874 l 144 886 l 154 888 q 182 872 202 833 q 222 794 234 748 q 247 701 252 655 q 258 609 258 579 q 258 531 246 478 q 234 424 212 372 q 190 320 158 273 q 127 226 87 188 q 47 151 0 127 q -47 103 -100 99 z"},"&":{"x_min":0,"x_max":578,"ha":578,"o":"m 298 330 q 290 326 270 316 q 250 305 224 292 q 197 279 167 264 q 137 250 109 238 q 81 226 58 218 q 34 211 21 211 q 7 211 -2 220 q -12 230 -12 244 q -12 261 -1 284 q 10 308 28 335 q 45 362 67 389 q 89 416 111 440 q 133 464 153 482 q 173 500 187 509 q 184 538 180 566 q 175 595 175 624 q 175 672 196 712 q 218 753 254 782 q 289 810 334 826 q 378 842 423 842 q 435 842 449 840 q 463 839 475 834 q 487 829 496 820 q 504 810 504 794 q 504 778 488 754 q 471 730 445 702 q 419 674 387 644 q 355 615 324 588 q 294 562 268 541 q 242 520 228 508 q 243 470 264 436 q 286 402 310 370 q 357 393 406 410 q 454 428 507 428 l 534 427 q 481 411 430 390 q 380 370 330 346 q 349 321 371 302 q 393 284 413 262 l 415 247 l 399 239 q 387 243 373 254 q 359 265 345 278 q 331 292 318 306 q 306 320 298 330 z m 217 542 q 227 550 250 569 q 273 588 302 612 q 330 636 360 664 q 391 691 416 716 q 441 740 457 760 q 473 781 473 791 q 473 798 467 803 q 461 808 453 810 q 445 812 436 813 q 428 814 422 814 q 381 814 342 800 q 303 785 273 760 q 243 734 225 698 q 207 661 207 618 q 207 599 210 580 q 212 561 217 542 z m 201 480 q 180 466 151 436 q 122 407 94 373 q 67 339 46 304 q 24 270 17 245 l 21 245 q 39 245 76 258 q 112 271 151 289 q 190 307 224 326 q 259 344 275 356 z"},"_":{"x_min":0,"x_max":546,"ha":546,"o":"m 386 259 q 363 248 338 249 q 314 250 290 250 q 212 250 135 243 q 58 236 -18 223 q -23 222 -26 221 q -30 220 -35 220 q -38 220 -42 223 q -47 226 -47 230 q -47 242 -40 244 q -32 245 -23 247 q 65 260 152 270 q 238 279 328 279 q 345 279 360 274 q 374 270 386 259 z"},"v":{"x_min":0,"x_max":243,"ha":243,"o":"m 295 531 q 278 510 244 476 q 211 441 172 408 q 134 374 96 350 q 57 326 30 326 q 13 326 4 337 q -6 348 -6 364 q -6 388 8 414 q 22 441 36 460 l 52 466 l 52 449 q 44 429 30 406 q 17 384 17 364 q 17 350 32 350 q 43 350 63 362 q 83 373 108 391 q 132 409 159 431 q 186 453 212 474 q 237 494 258 510 q 279 527 292 535 z"},"O":{"x_min":0,"x_max":639,"ha":639,"o":"m 301 639 q 237 610 179 578 q 121 546 62 508 q 59 512 59 519 q 59 530 78 546 q 97 561 126 578 q 155 596 190 613 q 226 630 259 644 q 292 659 318 670 q 344 680 356 684 q 381 693 405 704 q 429 716 452 728 q 476 740 500 750 q 525 761 552 767 l 466 711 q 494 707 520 702 q 547 697 568 685 q 588 673 600 652 q 613 632 613 596 q 613 546 590 489 q 567 432 528 375 q 490 318 438 265 q 387 212 331 172 q 275 131 218 106 q 160 82 108 82 q 60 82 32 106 q 3 130 3 180 q 3 225 18 268 q 32 311 56 352 q 80 392 111 430 q 142 468 176 504 q 209 539 242 572 q 275 604 304 633 z m 477 684 q 441 684 395 657 q 349 630 300 586 q 252 543 206 488 q 159 433 122 377 q 86 321 64 269 q 42 217 42 180 q 42 144 60 132 q 78 119 112 119 q 157 119 209 142 q 261 166 314 205 q 366 244 414 294 q 463 345 500 398 q 538 452 560 505 q 583 558 583 602 q 583 623 574 638 q 564 654 549 664 q 534 674 515 679 q 496 684 477 684 z"},"(":{"x_min":0,"x_max":207,"ha":207,"o":"m 381 885 q 379 882 376 878 q 374 875 371 873 q 354 858 336 844 q 318 831 301 815 q 233 752 184 674 q 136 595 102 508 q 85 463 74 416 q 62 368 62 320 q 62 281 70 251 q 77 221 90 196 q 104 170 124 146 q 143 122 167 94 q 126 106 99 128 q 72 150 56 180 q 39 210 32 246 q 25 282 25 321 q 25 392 48 468 q 72 544 111 616 q 150 687 201 749 q 252 811 307 854 q 311 857 319 864 q 327 870 336 876 q 346 882 354 887 q 363 892 367 892 q 371 892 375 890 q 379 887 381 885 z"},"C":{"x_min":0,"x_max":833,"ha":833,"o":"m 704 612 q 708 622 716 630 q 724 639 732 648 q 739 656 745 666 q 751 675 753 687 q 745 699 733 704 q 721 709 708 709 q 661 709 592 690 q 524 671 448 636 q 373 602 298 555 q 223 508 164 452 q 104 397 66 334 q 29 272 29 208 q 29 168 46 144 q 64 119 90 106 q 117 92 148 88 q 179 83 206 83 q 290 83 359 103 q 428 123 492 156 q 556 188 618 230 q 680 272 749 316 l 753 311 q 748 293 730 272 q 712 251 698 240 q 645 198 587 162 q 529 127 467 101 q 405 75 340 60 q 276 46 211 46 q 176 46 139 52 q 102 59 71 77 q 40 95 20 126 q 0 158 0 207 q 0 273 37 338 q 74 404 134 463 q 194 522 269 572 q 344 622 420 658 q 497 695 568 716 q 638 737 688 737 q 700 737 716 736 q 732 736 746 731 q 761 726 770 716 q 780 705 780 685 q 780 675 773 662 q 766 650 756 638 q 745 627 734 619 q 722 611 714 611 z"},"W":{"x_min":0,"x_max":910,"ha":910,"o":"m 896 650 l 897 627 q 897 588 877 542 q 857 495 824 448 q 790 401 747 358 q 704 314 658 280 q 612 246 566 226 q 521 205 483 205 q 441 205 426 228 q 410 251 410 290 q 410 317 418 346 q 427 374 438 398 q 448 423 456 441 q 465 459 465 467 l 465 476 q 447 459 414 427 q 382 395 341 357 q 300 319 255 280 q 210 240 167 208 q 124 175 88 154 q 52 134 29 134 q 7 134 -3 148 q -13 163 -13 183 q -13 209 2 248 q 17 287 42 332 q 68 377 102 426 q 137 476 175 524 q 213 571 254 614 q 295 658 333 691 q 371 724 405 744 q 439 765 465 767 l 475 760 l 469 748 q 429 730 398 713 q 368 696 336 664 q 312 640 278 604 q 245 569 210 526 q 174 484 139 437 q 104 390 76 344 q 48 297 31 254 q 14 210 14 175 q 14 172 16 166 q 19 161 24 161 q 51 161 96 190 q 140 218 192 260 q 243 303 296 353 q 350 403 395 446 q 440 488 471 516 q 502 545 509 545 q 525 545 525 531 q 525 519 512 492 q 499 464 484 428 q 468 393 455 354 q 442 315 442 280 q 442 262 448 250 q 455 239 475 239 q 494 239 514 245 q 535 251 551 260 q 616 296 666 334 q 715 371 754 416 q 794 461 825 515 q 856 569 884 637 l 890 649 z"},"A":{"x_min":0,"x_max":919,"ha":919,"o":"m 685 424 q 733 424 779 426 q 825 428 873 428 q 883 428 896 424 q 908 420 908 406 q 908 394 890 390 q 873 387 850 388 q 828 388 806 390 q 784 392 776 392 q 751 392 724 392 q 696 391 672 387 q 667 386 653 368 q 639 351 620 324 q 601 296 580 264 q 560 232 541 202 q 522 173 508 150 q 494 126 489 118 q 481 105 474 87 q 468 69 460 50 q 451 31 441 14 q 431 -4 417 -15 q 409 -17 403 -17 q 400 -17 397 -16 q 394 -15 391 -14 q 388 -9 386 -4 q 384 1 384 7 q 384 14 400 43 q 417 72 442 113 q 467 154 496 200 q 526 245 552 285 q 577 325 594 352 q 612 379 614 383 q 526 378 439 370 q 352 363 264 356 q 245 355 228 338 q 177 286 129 231 q 81 176 39 116 q 32 106 28 104 q 23 101 12 98 q 24 136 51 174 q 78 211 106 244 q 134 277 158 304 q 181 330 187 346 q 148 341 105 334 q 62 326 23 326 l 9 327 l -2 337 l 5 350 q 27 358 64 363 q 101 368 139 373 q 177 378 210 385 q 242 392 256 405 q 277 424 317 460 q 357 497 408 540 q 459 584 516 630 q 572 676 626 714 q 680 751 726 775 q 773 799 803 799 q 823 799 836 788 q 849 776 849 756 q 849 740 840 713 q 830 686 815 654 q 800 623 782 588 q 763 554 745 522 q 727 491 711 465 q 695 439 685 424 z m 295 394 q 369 399 442 406 q 514 412 588 417 q 610 418 621 418 q 632 419 638 423 q 644 427 649 436 q 654 445 666 464 q 699 519 732 573 q 764 627 796 683 q 804 697 811 717 q 818 737 818 752 q 818 770 801 770 q 777 770 736 748 q 695 726 646 691 q 596 656 543 614 q 490 571 442 530 q 393 489 354 454 q 314 420 293 402 z"},"f":{"x_min":0,"x_max":251,"ha":251,"o":"m 284 720 l 285 712 q 262 673 233 632 q 204 590 173 548 q 142 506 112 464 q 81 421 55 380 q 118 381 166 380 q 213 380 257 383 l 267 376 l 263 365 q 241 364 214 364 q 186 363 159 362 q 132 362 107 362 q 82 362 64 362 q 51 362 42 356 q 32 350 24 341 q 17 332 12 321 q 6 310 0 300 q 14 274 26 252 q 38 231 38 200 q 38 180 30 155 q 21 130 6 104 q -9 77 -28 52 q -48 27 -70 8 q -91 -12 -114 -24 q -136 -36 -157 -36 q -177 -36 -182 -25 q -186 -14 -186 3 q -186 18 -178 40 q -170 63 -156 90 q -143 116 -127 144 q -111 173 -95 199 q -79 225 -66 248 q -52 270 -43 284 q -38 292 -37 298 q -36 303 -36 308 q -37 314 -38 320 q -40 325 -40 333 q -40 346 -30 356 q -21 365 -8 373 q 5 381 19 390 q 33 399 42 411 q 87 472 132 532 q 176 593 221 654 q 224 658 232 670 q 239 681 248 692 q 257 703 265 712 q 273 721 278 721 z m -160 -12 q -130 1 -100 23 q -70 45 -46 74 q -21 102 -6 136 q 9 169 9 204 q 9 223 1 240 q -7 257 -18 272 q -27 259 -41 238 q -55 216 -70 190 q -86 164 -102 135 q -118 106 -131 80 q -144 53 -152 31 q -160 9 -160 -5 z"},"Q":{"x_min":0,"x_max":651,"ha":651,"o":"m 308 158 q 339 154 370 152 q 400 151 430 148 q 460 144 490 137 q 519 130 547 114 q 537 111 528 110 q 518 109 508 109 q 458 109 408 115 q 359 121 308 121 q 220 121 134 112 q 48 103 -40 94 l -50 100 q -51 101 -51 104 q -51 112 -38 118 q -26 124 -10 128 q 7 133 23 136 q 39 138 46 139 l 43 147 q 10 183 10 235 q 10 271 24 310 q 37 350 59 389 q 81 428 110 466 q 138 505 168 540 q 199 574 230 604 q 260 633 285 656 q 280 657 274 658 q 269 658 264 658 q 249 658 234 655 q 220 652 205 652 l 193 652 q 221 667 252 675 q 283 683 313 693 q 338 701 360 717 q 383 733 406 750 q 428 767 451 782 q 474 796 500 802 l 516 794 l 506 780 q 473 760 438 742 q 402 723 373 697 q 411 690 449 680 q 487 669 517 650 q 547 631 566 600 q 585 569 585 521 q 585 461 559 408 q 533 354 492 308 q 452 262 403 224 q 354 186 308 158 z m 146 144 q 163 147 180 149 q 198 151 215 156 q 250 167 288 187 q 327 207 364 234 q 401 261 435 294 q 469 328 494 365 q 520 402 535 442 q 550 481 550 521 q 550 561 531 588 q 512 616 482 632 q 452 649 416 656 q 380 663 347 663 q 328 663 311 646 q 287 622 258 592 q 228 562 198 528 q 167 495 138 458 q 110 422 88 384 q 66 347 52 309 q 39 271 39 235 q 39 208 47 190 q 55 173 70 164 q 84 154 104 150 q 123 146 146 146 z"},"w":{"x_min":0,"x_max":337,"ha":337,"o":"m 110 414 q 102 408 89 396 q 76 384 62 372 q 47 360 33 352 q 19 343 10 343 q 7 343 4 344 q 0 345 -2 346 q -7 350 -7 357 q -7 364 -8 369 q -7 375 2 392 q 10 408 20 426 q 31 445 40 461 q 50 477 54 480 l 72 481 l 74 466 q 66 446 52 426 q 39 406 28 388 l 32 383 q 37 387 52 400 q 67 412 84 426 q 100 439 114 450 q 127 461 130 461 q 137 461 142 456 q 147 451 147 444 q 147 421 136 398 q 126 376 126 351 q 131 347 140 347 q 147 347 163 356 q 179 365 200 380 q 220 394 242 411 q 265 428 286 444 q 307 460 324 473 q 340 486 348 491 q 336 474 310 445 q 283 416 251 388 q 219 361 186 341 q 154 321 132 321 q 117 321 110 331 q 102 341 102 355 q 102 370 105 385 q 108 400 110 414 z"},"-":{"x_min":0,"x_max":444,"ha":444,"o":"m 23 412 q 26 418 45 422 q 64 427 92 430 q 121 433 156 435 q 190 437 224 438 q 258 440 288 440 q 318 441 337 441 q 363 441 380 425 l 364 413 q 300 400 228 400 q 157 399 91 399 l 48 399 q 40 399 33 402 q 26 404 23 412 z"},"E":{"x_min":0,"x_max":833,"ha":833,"o":"m 813 303 q 747 255 666 218 q 586 182 500 157 q 414 132 326 119 q 238 106 159 106 q 139 106 111 108 q 83 110 57 118 q 31 126 13 144 q -5 161 -5 191 q -5 233 26 266 q 57 300 104 327 q 152 354 210 376 q 268 397 322 414 q 376 432 419 446 q 462 461 481 474 q 467 476 440 481 q 413 486 380 493 q 347 500 312 510 q 277 519 248 532 q 220 544 202 559 q 183 574 183 592 q 183 616 210 634 q 237 652 278 665 q 320 678 370 687 q 421 696 468 701 q 515 706 553 708 q 591 710 608 710 q 633 710 672 708 q 710 707 750 703 q 791 699 828 692 q 864 686 885 676 l 895 657 l 876 651 q 849 662 816 668 q 783 674 748 676 q 714 679 680 680 q 646 680 618 680 q 601 680 566 678 q 532 676 490 672 q 448 667 403 660 q 358 653 319 644 q 280 634 252 621 q 224 608 216 592 q 220 580 244 568 q 268 557 302 547 q 337 537 378 529 q 419 521 456 515 q 494 509 524 504 q 554 500 567 499 q 578 498 588 496 q 597 494 597 478 q 597 469 588 464 q 580 458 569 454 q 558 450 546 448 q 535 446 529 444 q 509 439 464 426 q 418 414 362 396 q 307 378 248 355 q 189 332 140 306 q 91 279 60 250 q 28 221 28 191 q 28 173 44 163 q 60 153 82 148 q 103 142 124 141 q 146 140 157 140 q 244 140 326 155 q 407 170 486 194 q 565 218 644 247 q 722 276 803 305 z"},"s":{"x_min":0,"x_max":191,"ha":191,"o":"m 194 496 q 187 507 178 517 q 168 527 154 527 q 144 527 126 522 q 108 516 90 507 q 72 498 58 486 q 45 475 45 463 q 45 449 58 438 q 72 427 88 414 q 105 402 118 387 q 132 372 132 352 q 132 333 116 317 q 100 301 75 288 q 50 275 20 265 q -11 255 -41 248 q -71 242 -96 238 q -121 235 -134 235 q -142 235 -151 238 q -160 241 -160 251 q -160 262 -150 266 q -140 269 -131 270 q -122 271 -102 274 q -81 277 -56 282 q -30 288 -2 295 q 25 302 48 311 q 71 320 86 330 q 100 341 100 353 q 100 366 86 377 q 73 388 57 401 q 41 414 28 429 q 14 444 14 464 q 14 483 30 500 q 47 517 70 530 q 92 543 116 550 q 140 558 156 558 q 163 558 172 555 q 181 552 190 547 q 198 542 204 535 q 209 528 209 520 q 209 512 204 506 q 199 501 194 496 z"},"l":{"x_min":0,"x_max":192,"ha":192,"o":"m 200 376 q 183 361 163 344 q 143 327 120 313 q 98 299 74 290 q 50 280 26 280 q 6 280 -4 292 q -14 303 -14 321 q -14 350 1 382 q 16 415 40 450 q 63 484 92 518 q 120 553 148 586 q 176 619 200 648 q 223 678 236 703 q 247 723 264 736 q 282 748 301 759 l 329 755 q 314 739 285 706 q 256 674 221 634 q 186 593 149 548 q 112 502 82 460 q 52 418 32 383 q 13 348 13 328 q 13 320 18 314 q 23 307 31 307 q 37 307 60 317 q 83 327 110 340 q 137 352 162 364 q 186 376 196 380 z"},"8":{"x_min":0,"x_max":356,"ha":356,"o":"m 303 649 q 347 684 394 716 q 441 748 493 776 q 485 768 468 754 q 450 739 428 722 q 407 705 384 686 q 362 668 344 651 q 325 634 313 620 q 301 606 301 599 q 301 574 305 549 q 309 524 309 498 q 309 447 293 402 q 277 357 244 321 q 212 285 164 261 q 116 237 52 229 l 39 228 q 8 228 -17 240 q -42 253 -42 282 q -42 303 -24 332 q -7 360 20 392 q 47 423 82 456 q 116 489 149 519 q 182 549 212 574 q 241 598 259 614 q 274 628 274 639 q 275 650 275 667 q 275 680 275 698 q 275 717 280 734 q 285 752 296 764 q 308 776 332 776 q 363 776 376 752 l 372 743 l 360 743 q 352 747 344 752 q 336 756 327 756 q 311 756 304 741 q 296 726 296 715 l 296 650 z m 273 594 q 257 581 230 558 q 202 534 170 505 q 138 476 105 444 q 72 412 46 382 q 19 351 2 325 q -15 299 -15 282 q -15 264 4 257 q 22 250 40 250 q 46 250 54 252 q 112 259 156 283 q 199 307 228 342 q 257 377 272 420 q 286 464 286 509 q 286 530 284 551 q 282 572 279 592 z"},"e":{"x_min":0,"x_max":266,"ha":266,"o":"m 274 379 q 257 362 229 349 q 201 336 169 328 q 137 320 105 318 q 73 315 48 320 q 22 324 6 336 q -9 349 -7 371 q -6 392 16 414 q 37 435 66 452 q 95 468 126 478 q 158 488 179 487 q 190 487 199 481 q 208 475 207 464 q 206 450 185 438 q 164 425 137 416 q 110 406 82 400 q 55 394 42 393 q 32 392 28 386 q 17 372 25 362 q 33 352 46 349 q 62 345 86 345 q 111 345 141 349 q 171 353 204 361 q 238 369 271 382 z m 170 452 q 148 461 122 450 q 96 438 80 420 z"},"b":{"x_min":0,"x_max":273,"ha":273,"o":"m 46 362 q 24 341 13 328 q 2 316 -6 305 q -15 294 -23 282 q -31 269 -47 248 l -64 246 l -70 262 q -66 277 -43 316 q -20 356 13 408 q 46 461 84 520 q 123 580 159 634 q 195 688 224 731 q 253 774 266 793 q 269 797 273 804 q 277 811 283 811 q 289 811 294 808 q 298 806 298 800 q 298 795 280 766 q 261 737 234 696 q 206 654 174 606 q 142 558 114 515 q 86 472 68 440 q 49 409 49 400 q 64 411 90 434 q 116 456 144 479 q 173 502 200 520 q 226 537 243 537 q 255 537 262 528 q 270 519 270 507 q 270 481 252 450 q 233 419 206 392 q 178 366 146 348 q 115 330 89 330 q 74 330 64 340 q 53 349 46 362 z m 239 510 q 186 485 142 448 q 98 410 55 372 q 71 361 88 361 q 112 361 136 376 q 159 390 180 411 q 200 432 216 456 q 232 480 240 500 z"},"%":{"x_min":0,"x_max":572,"ha":572,"o":"m 537 763 q 535 760 532 757 q 530 754 527 751 q 515 739 500 729 q 484 719 471 707 q 441 680 414 650 q 387 620 360 589 q 281 498 204 406 q 128 315 61 215 q 60 213 55 206 q 50 198 46 198 q 41 198 35 200 q 29 203 29 211 q 35 227 57 260 q 79 293 112 336 q 144 379 184 429 q 224 479 266 528 q 309 578 350 624 q 392 670 428 705 q 463 740 490 761 q 516 782 528 782 q 534 782 536 774 q 537 765 537 763 z m 438 441 q 444 427 457 422 q 470 416 483 410 q 496 404 506 394 q 516 383 516 360 q 516 339 506 320 q 497 301 482 286 q 466 272 446 263 q 427 254 407 254 q 383 254 368 270 q 353 286 353 310 q 353 331 360 350 q 367 369 379 386 q 391 402 406 416 q 422 430 438 441 z m 415 281 q 428 281 440 288 q 453 295 464 306 q 474 318 480 332 q 487 345 487 357 q 487 368 481 375 q 475 382 466 386 q 456 390 446 392 q 435 393 426 393 q 416 393 408 382 q 399 372 393 358 q 387 343 384 328 q 380 314 380 306 q 380 292 392 286 q 403 281 415 281 z m 138 601 q 115 601 101 614 q 87 627 87 650 q 87 666 95 684 q 103 703 116 718 q 129 734 146 744 q 163 755 180 755 q 206 755 219 738 q 232 722 232 698 q 232 680 224 662 q 217 645 204 632 q 191 618 174 610 q 157 601 138 601 z m 179 732 q 158 720 138 698 q 117 676 117 649 q 117 640 124 634 q 132 629 140 629 q 151 629 162 636 q 173 642 182 652 q 190 663 196 675 q 201 687 201 698 q 201 709 194 717 q 187 725 179 732 z"},"m":{"x_min":0,"x_max":440,"ha":440,"o":"m 179 486 q 169 479 154 466 q 138 453 120 436 q 101 420 80 401 q 59 382 38 364 q -10 321 -65 270 l -75 275 q -76 277 -77 278 q -78 280 -78 282 q -78 284 -65 301 q -52 318 -32 342 q -13 367 10 396 q 34 424 56 450 q 77 475 93 494 q 109 513 115 518 q 118 510 118 504 q 118 499 113 491 q 108 483 102 474 q 95 464 88 455 q 82 446 80 440 q 90 446 105 458 q 120 471 136 484 q 152 497 167 506 q 182 516 193 516 q 200 516 205 510 q 210 505 210 498 q 210 488 202 468 q 194 448 183 426 q 172 403 161 382 q 150 361 144 350 q 159 357 184 375 q 208 393 233 412 q 258 430 280 444 q 302 458 313 458 q 323 458 328 450 q 333 443 333 433 q 333 422 328 410 q 322 397 315 384 q 308 372 302 359 q 297 346 296 335 q 314 336 332 342 q 351 348 370 356 q 390 364 410 372 q 431 379 452 384 q 437 372 414 358 q 392 344 369 333 q 346 322 326 314 q 306 307 297 307 q 283 307 277 318 q 271 329 271 341 q 271 352 276 364 q 281 376 287 388 q 293 400 299 412 q 305 423 307 434 q 295 426 272 408 q 248 390 222 372 q 197 353 174 339 q 152 325 141 325 q 125 325 125 344 q 125 355 132 374 q 140 392 150 412 q 160 431 170 450 q 180 469 185 481 z"},",":{"x_min":0,"x_max":179,"ha":179,"o":"m 4 251 q 14 274 26 298 q 37 321 52 341 l 69 351 l 76 335 q 74 307 52 284 q 29 260 4 251 z"},"n":{"x_min":0,"x_max":293,"ha":293,"o":"m 181 382 q 178 370 182 363 q 185 356 198 356 q 211 355 236 360 q 261 365 300 376 q 286 365 262 352 q 237 340 213 335 q 189 330 172 338 q 154 345 154 374 q 154 387 156 400 q 158 413 160 426 q 110 407 66 378 q 23 349 -16 314 q -21 310 -24 306 q -28 302 -33 300 l -48 303 l -48 316 q -36 336 -18 358 q -1 380 18 401 q 37 422 56 442 q 76 461 93 478 q 96 475 98 472 q 101 469 101 464 q 101 461 96 454 q 91 447 85 439 q 79 431 73 424 q 67 417 65 414 l 68 410 q 77 414 89 420 q 101 427 114 434 q 127 440 140 444 q 152 449 161 449 q 175 449 180 441 q 186 433 186 422 q 187 412 185 400 q 183 389 181 382 z"},"h":{"x_min":0,"x_max":300,"ha":300,"o":"m 328 784 q 325 775 316 764 q 308 754 298 744 q 287 734 277 724 q 267 714 261 706 q 230 665 196 621 q 163 577 130 532 q 97 486 66 440 q 35 394 10 350 q 27 359 52 379 q 78 399 105 420 q 132 440 157 456 q 182 471 198 471 q 209 471 216 465 q 222 459 225 450 q 228 440 229 428 q 230 417 229 405 q 228 393 228 382 q 228 370 235 364 q 242 357 258 359 q 274 361 306 376 q 301 365 289 354 q 277 342 263 337 q 243 329 226 334 q 208 340 202 362 q 199 372 198 384 q 197 396 198 408 q 198 419 198 429 q 199 439 199 445 q 189 440 171 428 q 153 416 131 401 q 109 386 86 369 q 63 352 43 338 q 23 324 8 315 q -6 306 -10 306 q -18 306 -24 312 q -30 318 -30 325 q -30 338 -7 375 q 16 412 51 461 q 86 510 128 564 q 170 619 209 667 q 248 715 278 750 q 308 786 319 796 z"},"z":{"x_min":0,"x_max":254,"ha":254,"o":"m 156 444 q 145 440 120 427 q 96 414 71 400 q 46 386 26 375 q 7 364 6 364 q -7 364 -7 375 q -7 387 16 404 q 39 420 69 434 q 99 449 128 460 q 156 470 168 470 q 176 470 183 464 q 190 459 190 451 q 190 438 180 422 q 169 405 154 388 q 140 371 126 356 q 111 342 102 333 q 119 327 136 321 q 152 315 164 306 q 177 297 185 283 q 193 269 193 247 q 193 212 174 169 q 156 126 125 81 q 94 36 54 -7 q 15 -50 -28 -84 q -71 -117 -113 -138 q -155 -158 -191 -158 q -217 -158 -236 -146 q -254 -133 -254 -105 q -254 -91 -250 -78 q -246 -66 -242 -53 l -235 -53 q -235 -64 -234 -77 q -233 -90 -229 -101 q -225 -112 -216 -119 q -208 -126 -193 -126 q -162 -126 -124 -106 q -85 -87 -45 -54 q -5 -22 32 18 q 70 59 100 100 q 129 142 147 182 q 165 221 165 250 q 165 275 151 285 q 137 295 120 300 q 102 305 88 310 q 74 314 74 328 q 74 335 86 350 q 97 365 112 382 q 126 399 140 414 q 155 429 161 436 z"},"B":{"x_min":0,"x_max":854,"ha":854,"o":"m 616 716 q 562 703 508 690 q 453 677 399 661 q 345 645 293 624 q 241 604 191 576 q 174 567 165 556 q 156 544 146 534 q 137 523 124 515 q 110 507 85 505 l 80 511 q 97 543 140 573 q 183 603 242 630 q 300 656 366 678 q 433 700 498 716 q 562 732 617 740 q 672 749 707 749 q 720 749 744 746 q 768 744 790 737 q 813 730 830 718 q 847 705 847 684 q 847 657 818 628 q 790 600 746 571 q 702 542 650 514 q 597 486 550 462 q 502 438 466 418 q 430 398 420 385 l 440 385 q 475 385 510 389 q 545 393 580 393 q 599 393 634 392 q 668 390 702 382 q 737 373 762 356 q 788 340 788 310 q 788 300 784 288 q 780 276 774 264 q 767 253 760 242 q 753 232 747 225 q 719 192 677 162 q 635 133 584 108 q 534 83 478 63 q 423 43 368 29 q 313 15 262 8 q 211 0 171 0 q 152 0 124 3 q 95 6 69 15 q 43 24 24 41 q 5 58 5 87 q 5 110 18 131 q 32 152 54 170 q 76 188 104 203 q 131 218 158 229 q 186 240 211 248 q 236 255 253 259 q 270 263 283 271 q 296 279 305 296 q 334 346 371 400 q 408 455 448 509 q 489 563 531 613 q 573 663 612 704 z m 181 42 q 221 45 272 53 q 323 61 378 75 q 432 89 488 109 q 543 129 592 156 q 642 182 682 214 q 722 247 747 287 q 750 292 752 297 q 755 302 755 308 q 755 321 740 330 q 726 340 707 346 q 688 353 669 356 q 650 359 641 359 q 631 359 610 359 q 589 359 562 359 q 534 359 504 358 q 475 357 450 355 q 424 353 406 350 q 388 347 383 342 q 371 331 360 313 q 349 295 340 281 q 344 276 348 270 q 353 264 353 257 q 348 249 342 246 q 335 242 327 239 q 319 236 312 232 q 304 229 298 220 q 267 176 238 131 q 210 86 181 42 z m 648 703 q 648 697 636 678 q 625 660 606 636 q 588 611 566 583 q 544 555 522 528 q 501 502 484 480 q 466 458 457 446 q 468 449 499 464 q 530 480 570 502 q 610 523 654 549 q 697 575 734 600 q 770 624 794 646 q 817 667 817 680 q 817 694 802 702 q 787 710 767 714 q 747 717 728 718 q 708 719 699 719 q 685 719 672 718 q 660 718 647 717 z m 152 42 l 258 235 q 240 232 204 218 q 168 203 132 182 q 96 161 69 136 q 42 112 42 88 q 42 74 54 65 q 65 56 80 51 q 96 46 112 44 q 128 41 137 41 z"},"K":{"x_min":0,"x_max":663,"ha":663,"o":"m 209 424 q 228 435 264 456 q 300 477 346 504 q 392 530 445 560 q 498 590 552 620 q 605 649 656 676 q 707 704 749 726 q 791 747 820 760 q 850 774 861 776 l 871 769 l 868 759 q 863 755 857 752 q 851 750 846 747 q 679 663 519 572 q 359 482 202 381 q 223 350 250 320 q 278 291 304 263 q 337 227 362 201 q 388 175 410 157 q 433 139 455 127 q 477 115 504 107 q 532 99 567 92 q 602 86 650 80 l 654 77 q 637 66 618 61 q 598 56 578 56 q 524 56 476 78 q 429 101 388 134 q 346 168 312 207 q 277 246 250 280 q 222 313 202 336 q 183 358 172 359 q 166 357 152 338 q 139 319 121 290 q 103 262 83 228 q 63 195 45 164 q 27 134 14 110 q 0 86 -5 77 q -14 60 -21 41 q -28 22 -41 8 l -56 6 l -63 19 q -58 41 -36 84 q -14 126 18 182 q 51 237 91 300 q 131 364 174 427 q 216 490 258 548 q 299 606 334 651 q 368 696 393 722 q 418 749 427 750 q 431 749 435 746 q 439 742 439 738 q 439 735 436 731 q 432 727 430 725 q 403 696 372 658 q 341 621 310 580 q 280 540 253 500 q 226 459 209 424 z"},"R":{"x_min":0,"x_max":833,"ha":833,"o":"m 325 329 q 364 290 410 250 q 457 211 508 179 q 560 147 616 127 q 672 107 730 107 q 766 107 799 114 q 832 121 867 127 l 880 119 l 876 102 q 868 94 850 88 q 832 83 811 79 q 790 75 770 73 q 750 71 739 71 q 677 71 617 92 q 557 112 501 145 q 445 178 395 219 q 345 260 304 301 q 297 290 282 268 q 268 246 250 218 q 231 191 211 162 q 191 132 173 106 q 155 80 141 61 q 127 42 121 37 l 103 35 l 98 51 q 100 60 112 79 q 125 98 143 122 q 161 147 182 175 q 204 203 224 230 q 244 257 260 281 q 276 305 283 321 q 278 325 270 330 q 261 334 254 340 q 246 345 240 351 q 235 357 235 363 q 235 372 243 376 q 251 379 258 380 q 280 382 296 386 q 313 391 326 400 q 339 408 350 421 q 361 434 372 454 q 404 510 438 564 q 473 617 508 670 l 522 673 l 528 659 q 526 654 516 637 q 506 620 492 596 q 477 572 460 544 q 442 517 426 492 q 410 466 397 446 q 384 426 379 418 q 398 420 434 435 q 470 450 513 472 q 556 495 602 523 q 647 551 684 580 q 722 609 746 636 q 769 664 769 686 q 769 704 752 714 q 735 724 712 729 q 690 734 667 735 q 644 736 632 736 q 574 736 496 723 q 419 710 339 690 q 259 670 186 645 q 112 620 62 595 q 60 594 50 589 q 40 584 28 578 q 17 572 7 568 q -3 563 -4 563 l -21 564 q -16 582 12 600 q 39 619 82 636 q 124 654 178 670 q 231 687 288 702 q 346 716 402 728 q 459 740 508 749 q 557 758 594 762 q 631 767 648 767 q 669 767 696 764 q 724 762 748 754 q 773 746 790 730 q 808 713 808 686 q 808 652 782 618 q 757 585 717 554 q 677 522 628 494 q 578 465 529 442 q 480 418 438 400 q 395 383 369 373 q 353 367 342 356 q 330 346 325 329 z"},"T":{"x_min":0,"x_max":420,"ha":420,"o":"m 711 756 q 619 756 529 744 q 439 731 350 710 q 262 690 174 663 q 87 636 1 607 l -11 609 l -9 621 q 20 645 76 666 q 133 688 205 707 q 277 726 357 740 q 437 755 512 766 q 588 777 652 782 q 717 788 757 788 q 767 788 787 788 q 807 787 828 786 q 850 785 868 782 q 887 780 895 776 l 907 761 q 902 747 892 744 q 881 742 869 742 q 830 742 791 749 q 752 756 711 756 z m 92 92 l 83 109 q 84 126 103 167 q 122 208 152 262 q 181 316 216 376 q 251 437 284 492 q 318 548 344 592 q 371 636 384 658 q 387 663 390 669 q 393 675 400 675 q 405 675 410 670 q 415 666 415 661 q 415 658 412 653 q 410 648 408 645 q 348 535 281 428 q 214 320 157 208 q 144 182 134 156 q 125 130 110 104 z"},"P":{"x_min":0,"x_max":717,"ha":717,"o":"m 405 731 q 361 725 309 714 q 257 704 208 686 q 158 668 116 641 q 73 614 46 575 q 55 564 70 560 q 86 556 104 555 q 121 554 138 556 q 155 557 168 558 l 170 552 q 156 539 138 534 q 119 529 100 529 q 90 529 76 531 q 63 533 50 538 q 38 543 30 552 q 21 560 21 573 q 21 601 44 624 q 67 648 103 667 q 139 686 184 702 q 228 717 270 728 q 313 739 350 746 q 386 754 407 758 q 418 760 424 764 q 431 768 436 773 q 441 778 446 784 q 451 790 459 797 l 463 767 q 499 763 542 757 q 585 751 622 735 q 659 719 684 690 q 708 662 708 613 q 708 569 688 524 q 668 479 634 438 q 600 396 556 360 q 513 325 466 298 q 418 272 371 257 q 324 242 284 242 q 275 242 256 244 q 237 246 218 250 q 198 255 184 264 q 169 272 169 285 l 183 303 q 194 286 209 278 q 224 271 244 271 q 284 271 332 284 q 379 298 427 322 q 475 345 520 378 q 565 410 600 448 q 634 487 655 530 q 676 574 676 619 q 676 654 656 676 q 637 699 608 712 q 578 726 544 732 q 511 737 484 737 q 466 737 451 736 q 436 735 424 719 q 395 680 354 618 q 312 556 266 486 q 221 415 175 344 q 129 273 91 216 q 53 159 26 123 q 0 87 -6 87 q -11 87 -12 91 l -15 108 q -12 119 6 148 q 23 177 50 218 q 76 259 110 308 q 143 357 179 409 q 215 461 250 512 q 286 562 316 606 q 347 649 370 682 q 394 715 405 731 z"},"t":{"x_min":0,"x_max":207,"ha":207,"o":"m -13 265 q 19 273 48 287 q 78 301 106 318 q 135 335 162 352 q 190 370 219 386 q 207 370 176 346 q 146 321 110 298 q 75 274 41 258 q 7 241 -13 241 q -27 241 -36 250 q -45 259 -45 273 q -45 294 -30 326 q -16 357 6 394 q 29 432 58 472 q 86 511 113 548 q 140 584 163 614 q 186 644 199 663 q 195 664 190 665 q 186 666 182 666 q 131 666 79 660 q 27 655 -24 655 q -39 655 -49 662 q -45 667 -28 670 q -11 674 13 676 q 37 679 65 681 q 93 683 119 684 q 145 685 166 686 q 187 686 196 687 q 210 688 225 699 q 240 710 256 726 q 271 743 286 762 q 301 780 314 796 q 328 812 340 823 q 352 834 361 834 l 370 829 q 373 824 373 820 q 373 816 358 798 q 343 779 324 757 q 306 735 288 715 q 271 695 266 688 q 326 688 384 685 q 443 682 503 682 q 512 682 518 680 q 524 677 524 666 q 524 659 518 657 q 513 655 508 655 q 448 655 386 662 q 324 668 262 668 q 254 668 234 648 q 214 627 189 595 q 164 563 136 525 q 108 487 83 452 q 58 416 39 388 q 20 360 13 349 q 1 329 -6 311 q -13 293 -20 271 z"},"M":{"x_min":0,"x_max":918,"ha":918,"o":"m 579 -17 q 574 -19 568 -20 q 563 -21 558 -21 q 540 -21 535 -6 q 530 10 530 24 q 530 57 552 109 q 575 161 610 222 q 646 283 690 349 q 733 415 775 476 q 817 538 853 590 q 889 642 909 676 q 898 677 873 660 q 848 643 814 614 q 781 586 742 548 q 702 511 662 472 q 621 433 582 396 q 543 358 512 328 q 480 299 458 281 q 436 263 429 263 q 427 263 422 264 q 418 266 416 267 q 407 274 407 285 q 407 292 415 312 q 423 333 435 360 q 447 388 462 420 q 477 451 491 480 q 505 510 516 534 q 527 559 532 572 q 507 559 468 524 q 429 489 384 444 q 339 400 292 351 q 246 302 206 261 q 167 220 138 193 q 110 166 101 166 l 91 171 q 86 178 86 187 q 86 195 107 232 q 128 270 160 322 q 192 375 231 436 q 270 496 305 552 q 340 607 367 650 q 394 693 403 710 q 375 704 342 686 q 308 667 272 642 q 236 617 199 588 q 162 559 127 531 q 92 503 60 478 q 27 454 1 439 l -4 450 q -1 459 28 484 q 56 509 98 541 q 139 573 188 608 q 237 642 281 671 q 325 700 358 718 q 391 737 402 737 q 413 737 420 730 q 428 722 428 711 q 428 694 410 659 q 391 624 362 580 q 334 536 300 488 q 266 439 236 394 q 206 349 184 312 q 163 276 158 256 q 172 269 201 300 q 230 331 266 370 q 303 408 344 450 q 385 491 422 525 q 460 559 490 581 q 520 603 535 603 q 546 603 552 594 q 559 586 559 575 q 559 557 546 522 q 532 488 514 450 q 497 411 480 374 q 462 338 455 316 q 471 330 507 366 q 543 401 589 446 q 635 490 686 538 q 736 586 782 626 q 829 666 866 692 q 903 717 921 717 q 931 717 938 710 q 946 703 946 693 q 946 680 930 650 q 913 620 886 578 q 859 536 824 486 q 790 435 754 382 q 719 328 684 274 q 650 221 623 173 q 596 125 580 86 q 563 46 563 21 q 563 1 579 -17 z"},"g":{"x_min":0,"x_max":274,"ha":274,"o":"m 111 257 q 100 238 76 202 q 53 165 22 121 q -9 77 -45 30 q -81 -16 -117 -54 q -153 -91 -187 -116 q -221 -140 -248 -140 q -263 -140 -272 -130 q -281 -119 -281 -104 q -281 -66 -261 -28 q -241 11 -208 48 q -175 86 -134 121 q -93 156 -52 188 q -10 219 28 246 q 67 272 94 292 q 117 309 136 341 q 155 373 170 398 l 152 413 q 143 407 124 396 q 106 385 86 374 q 66 364 48 356 q 29 348 19 348 q 10 348 2 354 q -5 361 -5 370 q -5 385 11 403 q 27 421 48 437 q 70 453 93 464 q 116 475 130 475 q 142 475 152 469 q 163 463 172 456 q 176 459 184 466 q 193 473 202 480 q 212 487 220 492 q 229 497 234 497 q 244 497 244 487 q 244 478 232 458 q 221 437 207 414 q 203 408 186 380 q 168 351 151 314 q 180 331 212 350 q 244 368 276 379 l 280 374 q 269 364 250 351 q 232 338 210 324 q 187 310 163 296 q 139 281 119 267 z m 62 238 q 15 207 -31 174 q -77 140 -118 102 q -158 64 -192 20 q -226 -25 -250 -78 q -255 -88 -255 -96 q -255 -101 -253 -105 q -251 -109 -249 -113 q -229 -114 -200 -94 q -172 -73 -141 -40 q -110 -7 -78 34 q -46 74 -18 113 q 11 152 33 184 q 55 216 66 233 z m 150 442 q 141 454 128 454 q 115 454 99 446 q 83 438 68 426 q 52 414 40 400 q 27 387 20 377 l 21 372 q 54 377 90 398 q 125 420 150 442 z m 177 422 l 183 419 q 190 429 194 439 l 189 442 z"},"j":{"x_min":0,"x_max":125,"ha":125,"o":"m -37 283 q 5 310 47 337 q 89 364 137 381 q 83 340 28 298 q -27 257 -78 212 q -111 183 -144 142 q -176 100 -208 55 q -240 10 -273 -34 q -306 -79 -341 -113 q -345 -117 -352 -122 q -358 -128 -365 -134 q -372 -139 -379 -142 q -386 -146 -392 -146 q -400 -146 -406 -140 q -413 -135 -413 -127 q -413 -108 -394 -78 q -374 -49 -344 -15 q -313 19 -276 55 q -240 91 -206 125 q -171 159 -143 187 q -115 215 -102 233 q -63 289 -25 345 q 13 401 50 458 q 52 461 56 468 q 60 475 65 475 q 70 475 74 472 q 79 470 79 465 q 50 419 21 374 q -8 328 -37 283 z m -223 70 q -238 58 -260 36 q -282 15 -304 -10 q -325 -35 -343 -59 q -361 -83 -368 -101 q -327 -62 -292 -18 q -257 25 -223 70 z m 108 543 l 100 548 l 99 561 q 107 571 115 580 q 123 589 132 598 l 144 599 l 147 587 q 140 576 132 566 q 125 557 117 547 z"},"i":{"x_min":0,"x_max":169,"ha":169,"o":"m 96 466 q 69 436 44 405 q 19 374 5 336 q 15 331 23 331 q 33 331 52 336 q 72 342 94 350 q 117 358 138 366 q 160 374 175 379 q 164 363 146 350 q 127 337 105 328 q 83 318 60 313 q 37 308 18 308 q 4 308 -6 317 q -16 326 -16 340 q -16 350 -5 372 q 6 395 20 418 q 35 441 50 458 q 66 476 75 476 q 80 476 86 472 q 91 467 96 466 z m 156 561 q 148 540 135 526 q 122 512 108 500 l 98 504 l 97 517 q 109 531 121 544 q 133 556 146 569 z"},"y":{"x_min":0,"x_max":349,"ha":349,"o":"m 358 374 q 349 363 331 348 q 313 333 292 318 q 271 302 250 288 q 230 274 217 266 q 211 262 206 258 q 200 254 194 249 q 166 218 136 180 q 106 143 76 106 q 45 68 14 32 q -16 -3 -44 -30 q -73 -57 -99 -74 q -125 -90 -147 -90 q -155 -90 -162 -85 q -170 -80 -170 -70 q -170 -38 -145 -2 q -120 35 -82 73 q -45 111 0 148 q 46 186 86 219 q 127 252 158 278 q 189 305 198 322 q 219 361 242 400 q 264 438 275 481 l 270 486 q 252 478 216 456 q 179 433 139 410 q 99 387 65 369 q 31 351 19 351 q 9 351 2 358 q -4 366 -4 376 q -4 384 4 398 q 12 411 22 425 q 33 439 44 452 q 54 464 60 471 l 79 472 q 65 448 46 428 q 28 407 21 380 q 23 378 28 378 q 35 378 54 388 q 72 397 96 411 q 119 425 146 442 q 172 459 196 473 q 221 487 240 496 q 260 506 270 506 q 282 506 290 496 q 297 487 297 476 q 297 467 291 450 q 285 433 275 410 q 265 387 252 358 q 239 330 224 299 q 257 319 290 339 q 322 359 354 379 z m 123 216 q 94 197 54 164 q 13 130 -26 91 q -66 52 -98 12 q -131 -28 -143 -60 q -125 -54 -101 -36 q -77 -18 -50 7 q -24 32 4 62 q 31 91 54 120 q 78 148 96 174 q 114 199 123 216 z"},"@":{"x_min":0,"x_max":701,"ha":701,"o":"m 340 346 q 330 339 316 330 q 301 320 286 312 q 270 303 254 297 q 239 291 227 291 q 210 291 200 302 q 190 312 190 329 q 190 352 202 382 q 214 411 234 436 q 253 462 278 480 q 302 497 327 497 q 343 497 358 490 q 374 482 386 470 q 398 457 406 442 q 413 426 413 410 q 413 405 410 401 q 406 397 401 398 l 388 412 q 383 433 367 452 q 351 471 327 471 q 306 471 286 456 q 267 440 252 418 q 237 395 228 370 q 219 346 219 328 l 219 323 q 226 318 232 318 q 242 318 260 329 q 279 340 299 353 q 319 366 336 377 q 353 388 361 388 q 367 388 371 384 q 375 379 375 373 q 375 361 372 350 q 368 338 368 325 q 368 314 374 308 q 381 302 391 302 q 416 302 449 324 q 482 345 512 376 q 542 407 562 442 q 583 476 583 501 q 583 538 567 562 q 551 585 526 598 q 501 612 470 618 q 439 623 409 623 q 369 623 324 612 q 279 601 235 581 q 191 561 151 532 q 111 504 80 469 q 50 434 32 392 q 14 351 14 306 q 14 267 32 240 q 49 213 76 197 q 104 181 138 174 q 172 167 205 167 q 280 167 353 183 q 426 199 496 226 q 504 229 526 240 q 549 251 574 262 q 599 274 619 284 q 639 293 642 293 q 647 293 651 289 q 655 285 655 280 q 655 261 626 244 q 598 226 554 210 q 509 193 456 180 q 402 166 352 156 q 302 146 262 140 q 221 135 204 135 q 165 135 126 145 q 86 155 54 176 q 23 196 4 228 q -16 261 -16 306 q -16 356 3 400 q 22 445 54 484 q 86 522 128 552 q 171 583 218 605 q 265 627 314 638 q 362 650 406 650 q 439 650 475 643 q 511 636 541 620 q 571 603 590 576 q 610 549 610 508 q 610 476 588 436 q 566 395 533 360 q 500 324 462 300 q 423 275 391 275 q 375 275 365 282 q 355 288 350 298 q 344 308 342 320 q 340 333 340 346 z"},".":{"x_min":0,"x_max":171,"ha":171,"o":"m 63 350 q 63 339 51 326 q 39 314 27 314 q 16 314 16 324 q 16 328 18 336 q 21 343 25 350 q 29 357 34 362 q 40 368 45 368 q 52 368 58 362 q 63 357 63 350 z"},"p":{"x_min":0,"x_max":277,"ha":277,"o":"m 88 482 q 84 469 75 452 q 66 436 55 419 q 44 402 33 386 q 22 369 14 357 q 27 362 46 378 q 64 394 86 415 q 109 436 134 460 q 159 483 183 503 q 207 523 229 536 q 251 549 269 549 l 283 542 q 288 534 288 521 q 288 500 270 474 q 252 447 227 422 q 202 398 176 378 q 149 357 131 348 q 105 334 88 332 q 71 331 43 331 q 28 331 4 308 q -19 285 -47 250 q -75 214 -105 171 q -135 128 -163 88 q -191 49 -215 18 q -239 -14 -254 -26 l -272 -27 l -279 -9 q -279 -7 -264 14 q -250 35 -226 68 q -203 102 -172 144 q -142 186 -110 230 q -78 275 -46 318 q -15 361 11 396 q 37 432 56 456 q 74 481 80 488 z m 264 520 q 245 515 214 494 q 183 473 151 446 q 119 420 92 392 q 65 365 53 349 q 82 356 114 372 q 147 389 177 412 q 207 436 230 464 q 253 491 264 520 z"},"X":{"x_min":0,"x_max":566,"ha":566,"o":"m 371 539 q 391 555 424 582 q 457 608 497 638 q 537 669 580 700 q 624 731 665 756 q 706 781 742 796 q 777 812 801 812 l 810 812 l 822 799 l 811 779 l 794 776 q 792 784 787 784 q 773 784 736 766 q 700 747 654 718 q 608 689 558 654 q 507 619 466 586 q 424 553 397 526 q 370 499 370 487 q 370 452 370 404 q 371 357 373 308 q 375 258 380 212 q 386 166 395 133 q 404 103 420 92 q 435 82 463 75 q 446 60 427 60 q 402 60 386 86 q 370 111 360 151 q 351 191 347 240 q 343 288 342 334 q 340 379 340 416 q 341 454 341 472 l 328 467 q 222 375 130 280 q 39 185 -47 75 l -60 74 l -62 86 q -54 110 -28 144 q -2 179 34 218 q 69 257 110 298 q 152 339 192 376 q 231 413 264 443 q 298 473 318 491 q 332 503 338 535 q 344 567 346 604 q 349 642 350 678 q 350 713 352 734 q 353 739 354 748 q 356 757 364 755 l 375 741 q 377 734 377 728 q 377 721 377 714 q 377 670 374 626 q 370 583 371 539 z"},"*":{"x_min":0,"x_max":335,"ha":335,"o":"m 201 605 q 162 594 126 575 q 91 556 52 545 l 52 553 q 52 558 64 566 q 75 575 92 584 q 110 594 131 604 q 152 615 172 624 q 191 634 206 640 q 222 647 229 650 q 221 677 206 700 q 190 722 176 746 q 188 746 198 738 q 209 730 218 718 q 226 707 233 694 q 240 682 246 673 q 255 681 260 690 q 265 700 270 710 q 274 721 280 731 q 285 741 293 749 q 303 742 303 731 q 303 727 300 718 q 297 710 292 701 q 288 692 284 684 q 280 675 278 671 q 306 680 334 688 q 362 695 391 695 l 397 695 q 366 675 332 663 q 297 651 264 636 q 267 619 273 604 q 279 589 279 572 q 279 560 276 550 l 243 617 q 219 583 193 551 q 167 519 133 494 l 128 498 q 147 524 165 551 q 183 578 201 605 z"},"Y":{"x_min":0,"x_max":671,"ha":671,"o":"m 534 399 q 560 395 586 397 q 611 399 635 389 q 611 386 586 384 q 562 381 538 377 q 527 375 508 351 q 490 327 465 288 q 440 250 408 201 q 377 152 341 101 q 305 50 265 2 q 225 -47 182 -85 q 139 -123 94 -146 q 49 -169 3 -169 q -34 -169 -52 -142 q -69 -116 -69 -83 q -69 -41 -51 2 q -33 44 -3 84 q 27 123 66 159 q 104 195 145 226 q 186 258 226 282 q 267 307 300 324 q 345 347 389 362 q 433 378 481 390 q 489 392 494 394 q 498 397 503 404 q 534 449 560 502 q 587 556 611 606 q 588 588 559 562 q 530 537 498 510 q 465 483 430 456 q 394 430 358 409 q 323 388 289 375 q 255 362 224 362 q 191 362 174 382 q 157 402 157 434 q 157 450 166 477 q 174 504 187 535 q 200 566 217 598 q 234 630 250 656 q 267 682 282 698 q 298 715 309 715 l 322 714 q 302 685 278 651 q 254 617 233 580 q 212 544 198 506 q 183 468 183 432 q 183 390 223 390 q 263 390 307 410 q 351 430 395 460 q 439 491 480 526 q 521 561 556 592 q 590 622 614 642 q 639 662 650 662 l 654 662 q 660 654 660 648 q 660 642 652 624 q 644 605 632 580 q 619 556 604 528 q 589 500 575 474 q 561 449 550 428 q 539 408 534 399 z m 474 360 q 434 355 380 333 q 327 311 270 278 q 213 244 158 201 q 102 158 58 111 q 15 64 -12 15 q -39 -34 -39 -80 q -39 -102 -30 -122 q -20 -142 6 -142 q 46 -142 91 -114 q 136 -86 182 -42 q 227 2 271 57 q 315 112 354 167 q 392 222 422 270 q 452 318 470 349 q 472 351 472 354 q 473 358 474 360 z"},"c":{"x_min":0,"x_max":298,"ha":298,"o":"m 306 376 q 242 341 178 328 q 115 314 41 327 q 33 328 24 332 q 15 335 8 340 q 0 346 -4 354 q -9 363 -7 376 q -3 406 24 430 q 51 454 86 470 q 122 486 158 494 q 194 501 215 497 q 221 495 228 492 q 235 489 242 485 l 246 467 q 231 462 216 466 q 200 471 184 470 q 145 468 107 452 q 69 435 37 405 q 32 400 26 393 q 19 386 18 376 l 17 370 q 20 363 26 360 q 31 357 36 356 q 102 345 171 355 q 240 365 303 383 z"},"!":{"x_min":0,"x_max":243,"ha":243,"o":"m 59 303 q 59 312 76 346 q 93 380 118 427 q 144 474 174 526 q 205 579 233 624 q 261 670 282 702 q 304 733 311 737 q 316 740 321 740 q 326 741 331 741 l 331 721 q 289 660 252 600 q 214 541 177 477 q 150 430 126 381 q 101 332 70 288 z m 71 246 q 71 240 66 234 q 62 227 56 222 q 49 218 42 215 q 35 212 29 212 q 23 212 18 216 q 14 221 14 227 l 18 236 q 21 239 26 243 q 31 247 37 250 q 43 254 49 257 q 55 260 59 260 q 64 260 68 256 q 71 251 71 246 z"},"/":{"x_min":0,"x_max":301,"ha":301,"o":"m -23 182 q -28 189 -28 195 q -28 203 -12 231 q 5 259 32 300 q 59 342 94 392 q 130 443 168 495 q 205 547 242 598 q 280 648 312 688 q 343 728 366 755 q 388 782 397 788 l 417 786 l 417 767 l 413 762 q 356 697 304 630 q 251 562 202 492 q 152 422 104 351 q 56 280 7 209 q -1 198 -6 192 q -10 187 -23 182 z"},"6":{"x_min":0,"x_max":458,"ha":458,"o":"m 134 410 l 137 426 q 156 447 178 466 q 201 486 226 502 q 252 517 280 526 q 308 535 337 535 q 400 535 400 474 q 400 447 386 419 q 371 391 346 365 q 322 339 292 316 q 261 294 228 277 q 196 260 164 250 q 133 241 108 241 q 58 241 30 265 q 1 289 1 341 q 1 384 23 432 q 45 480 81 526 q 117 573 163 616 q 209 659 258 694 q 307 728 354 750 q 401 772 440 778 l 454 767 l 443 756 q 434 752 424 750 q 415 748 406 744 q 372 731 331 708 q 290 684 248 652 q 206 621 166 584 q 126 546 96 506 q 65 465 46 424 q 28 382 28 342 q 28 308 46 287 q 65 266 100 266 q 123 266 152 275 q 181 284 212 299 q 242 314 270 335 q 299 356 322 380 q 344 403 358 429 q 372 455 372 480 q 372 495 362 501 q 352 507 338 507 q 311 507 286 498 q 261 489 238 475 q 215 461 194 444 q 172 428 151 413 l 140 407 z"},"r":{"x_min":0,"x_max":267,"ha":267,"o":"m 111 500 q 95 477 79 456 q 63 434 47 411 l 50 408 q 66 419 94 438 q 121 458 151 478 q 181 497 209 511 q 237 525 254 525 q 263 525 269 520 q 275 514 278 506 q 282 498 284 490 q 285 481 285 474 q 285 460 274 460 q 258 460 254 472 q 249 484 245 495 q 217 494 178 472 q 139 449 100 418 q 62 387 29 354 q -4 321 -21 300 q -23 297 -28 292 q -32 286 -36 286 q -41 286 -46 289 q -51 292 -51 298 q -51 304 -42 322 q -32 339 -18 362 q -3 384 15 408 q 33 433 50 454 q 66 474 79 487 q 92 500 98 500 z"},"2":{"x_min":0,"x_max":538,"ha":538,"o":"m 482 342 q 434 332 382 319 q 330 306 278 294 q 225 283 173 275 q 121 267 72 267 q 61 267 49 270 q 37 272 27 278 q 17 284 10 293 q 3 302 3 315 q 3 345 38 381 q 73 417 126 456 q 178 494 240 532 q 301 571 354 606 q 406 641 441 671 q 476 701 476 721 q 476 730 468 736 q 460 741 450 743 q 439 745 428 746 q 417 746 411 746 q 369 746 324 736 q 279 727 237 709 q 195 691 158 665 q 120 639 92 606 q 89 602 86 598 q 83 593 83 587 q 83 583 86 579 q 89 575 91 572 l 94 555 q 86 551 74 551 q 67 551 60 560 q 53 570 53 577 q 53 609 74 636 q 95 663 128 685 q 161 707 202 724 q 244 741 286 752 q 327 764 364 770 q 401 776 425 776 q 437 776 452 774 q 466 771 478 765 q 491 759 500 749 q 509 739 509 724 q 509 696 474 662 q 440 628 388 590 q 335 552 274 514 q 214 475 162 439 q 109 403 74 372 q 40 340 40 317 q 40 308 52 304 q 65 301 72 301 q 115 301 158 310 q 201 318 244 328 q 287 339 330 348 q 372 357 414 357 q 430 357 446 354 q 461 352 477 348 z"},"9":{"x_min":0,"x_max":442,"ha":442,"o":"m 478 754 q 452 733 410 702 q 368 672 322 643 q 275 614 230 594 q 184 573 151 573 q 135 573 123 583 q 111 593 111 610 q 111 630 126 652 q 142 674 166 695 q 191 716 222 734 q 252 753 283 767 q 314 781 342 790 q 369 798 387 798 q 414 798 423 783 q 432 768 432 743 q 437 747 446 754 q 454 760 463 766 q 472 773 481 778 q 490 782 496 782 q 503 782 505 776 q 507 770 507 765 q 507 763 505 757 q 503 751 502 749 q 489 712 464 656 q 440 599 406 536 q 373 472 332 409 q 292 346 246 295 q 201 244 152 212 q 102 181 52 181 q 11 181 -16 210 q -43 239 -43 279 q -43 285 -43 291 q -43 297 -41 302 q -35 288 -26 272 q -17 257 -5 244 q 7 231 22 223 q 36 215 53 215 q 94 215 138 246 q 183 276 226 324 q 269 373 310 432 q 350 492 384 550 q 417 609 442 660 q 467 711 479 741 l 482 751 z m 136 603 q 146 600 158 600 q 171 600 195 608 q 219 615 248 628 q 276 641 306 658 q 335 674 360 692 q 384 709 400 726 q 415 743 415 758 q 415 764 410 768 q 406 773 400 775 q 393 777 386 778 q 378 779 373 779 q 359 779 336 770 q 312 762 286 748 q 260 735 233 717 q 206 699 184 680 q 162 661 148 642 q 135 624 135 609 z"}," ":{"x_min":0,"x_max":292,"ha":292,"o":""},"I":{"x_min":0,"x_max":611,"ha":611,"o":"m 735 693 q 698 693 662 689 q 625 685 589 678 l 232 177 q 302 185 374 195 q 447 205 517 205 q 528 205 540 202 q 553 199 553 185 q 553 176 544 171 q 535 166 522 163 q 510 160 498 160 q 485 159 478 159 q 462 159 446 162 q 431 165 415 165 q 372 165 327 160 q 282 154 236 146 q 191 139 146 130 q 101 120 59 113 q 38 109 15 102 q -8 95 -30 95 q -35 95 -40 96 q -46 98 -46 105 q -46 117 -37 121 q -28 125 -18 127 q 18 136 60 148 q 103 160 140 162 q 174 164 190 176 q 207 189 226 216 q 303 327 382 434 q 460 542 536 653 q 539 658 542 662 q 544 666 546 671 q 446 648 350 624 q 253 599 157 562 q 151 560 144 557 q 138 554 131 554 q 127 554 124 555 q 120 556 116 557 l 124 573 q 152 589 200 606 q 248 624 306 640 q 365 656 429 670 q 493 685 553 696 q 613 707 664 714 q 715 720 747 720 q 755 720 772 720 q 789 719 806 716 q 824 712 837 705 q 850 698 850 686 q 850 678 842 674 q 834 670 823 668 q 812 665 802 664 q 791 664 785 664 q 762 664 762 668 q 762 673 766 692 z"},"H":{"x_min":0,"x_max":709,"ha":709,"o":"m 782 735 q 661 669 540 614 q 419 558 292 504 q 270 494 256 471 q 249 459 230 425 q 212 391 188 347 q 164 303 137 255 q 110 207 86 168 q 63 128 46 102 q 28 76 22 76 q 1 76 1 96 q 1 122 8 152 q 16 182 25 214 q 34 246 42 280 q 49 313 49 345 q 49 367 44 382 q 39 397 33 406 q 27 416 22 422 q 17 428 17 433 q 17 438 32 446 q 48 453 71 462 q 94 470 122 479 q 149 488 174 495 q 199 502 217 507 q 235 512 240 514 q 251 517 265 536 q 279 555 294 582 q 310 608 326 640 q 343 672 358 701 q 374 730 388 753 q 402 776 413 787 l 422 782 q 425 777 425 773 q 425 770 416 754 q 408 737 394 713 q 381 689 365 662 q 349 634 334 608 q 319 583 308 564 q 297 544 293 536 q 329 548 380 568 q 430 587 487 612 q 544 637 602 666 q 661 695 714 726 q 767 758 810 790 q 852 822 877 853 l 896 844 q 901 846 908 850 q 914 854 919 854 q 926 854 929 848 q 932 842 932 836 q 932 834 918 824 q 905 815 888 804 q 871 792 856 780 q 840 769 835 762 q 725 601 627 433 q 529 265 438 92 q 421 60 406 22 q 392 -17 370 -46 l 356 -49 l 350 -38 q 350 -11 376 48 q 401 106 442 180 q 483 255 533 338 q 583 421 631 498 q 679 575 720 638 q 760 701 782 735 z m 231 479 l 61 426 q 80 384 80 335 q 80 295 72 256 q 63 218 57 179 z"},"4":{"x_min":0,"x_max":432,"ha":432,"o":"m 81 549 q 88 546 94 544 q 101 542 109 542 q 116 542 139 548 q 162 555 194 566 q 226 576 262 588 q 298 601 332 613 q 365 625 392 634 q 418 643 430 647 q 446 652 457 662 q 468 673 478 686 q 488 698 498 710 q 508 722 522 730 l 534 728 l 537 714 q 535 709 532 706 q 528 702 525 698 q 436 595 362 484 q 287 373 216 258 q 207 243 198 230 q 188 218 174 208 l 173 221 q 173 242 190 274 q 206 306 232 344 q 257 381 287 421 q 317 461 344 498 q 371 536 391 568 q 411 599 417 619 q 382 607 342 589 q 302 571 261 554 q 220 537 178 525 q 137 513 100 513 q 83 513 69 522 q 55 530 55 550 q 55 565 74 598 q 93 630 118 666 q 143 701 168 732 q 193 762 205 772 l 222 772 l 221 757 q 206 730 187 705 q 168 680 150 655 q 131 630 113 604 q 95 579 81 549 z"},"D":{"x_min":0,"x_max":1028,"ha":1028,"o":"m 249 58 q 246 54 240 44 q 235 33 228 22 q 222 11 216 2 q 211 -8 208 -10 l 190 -12 l 183 8 q 187 20 192 30 q 197 41 202 52 q 170 54 135 56 q 100 57 70 66 q 40 76 20 99 q -1 122 -4 167 l 6 159 q 27 137 42 124 q 58 112 74 106 q 91 100 111 98 q 131 97 161 97 q 171 97 182 96 q 193 95 204 96 q 214 97 224 101 q 233 105 239 115 q 248 130 275 172 q 302 214 336 270 q 370 325 408 386 q 445 448 476 501 q 507 554 527 592 q 547 629 547 636 q 547 643 552 652 q 556 660 562 668 q 569 677 576 684 q 582 692 587 697 q 496 691 405 678 q 314 666 226 632 q 222 630 214 626 q 206 623 198 620 q 189 616 181 613 q 173 610 170 610 q 167 610 164 614 q 161 618 159 621 q 164 640 198 656 q 232 671 280 684 q 329 696 386 704 q 443 713 496 719 q 548 725 589 728 q 630 731 647 731 q 673 731 710 729 q 747 727 786 721 q 825 715 864 703 q 902 691 932 672 q 963 652 982 623 q 1001 594 1001 554 q 1001 492 962 434 q 923 377 861 326 q 799 275 722 232 q 645 189 569 156 q 493 123 426 100 q 358 78 315 70 z m 286 105 q 315 107 360 119 q 405 131 458 151 q 512 171 570 198 q 629 226 686 258 q 742 290 794 326 q 845 362 884 400 q 922 439 945 479 q 968 519 968 558 q 968 588 951 610 q 934 633 906 648 q 879 664 845 674 q 811 683 777 688 q 743 694 712 696 q 682 698 662 698 q 645 698 636 694 q 627 689 616 675 q 596 646 567 602 q 538 557 506 504 q 473 450 438 392 q 404 335 373 282 q 342 228 317 182 q 292 137 279 107 z"},"^":{"x_min":0,"x_max":179,"ha":179,"o":"m 137 638 q 126 640 121 646 q 116 651 114 658 q 112 664 112 672 q 112 681 111 689 q 93 675 74 660 q 55 646 34 635 l 22 638 l 23 650 q 55 674 85 702 q 115 729 148 752 l 159 752 l 163 740 q 157 727 151 718 q 145 708 141 698 q 137 688 136 676 q 135 665 139 649 z"},"0":{"x_min":0,"x_max":368,"ha":368,"o":"m 163 675 l 62 631 l 60 634 q 79 654 101 667 q 123 680 146 692 q 168 703 190 714 q 212 726 232 742 q 238 746 254 760 q 269 773 286 788 q 304 802 320 813 q 335 824 340 824 q 342 824 346 822 q 349 821 351 820 l 257 742 l 260 738 q 280 741 298 743 q 317 745 337 745 q 357 745 375 742 q 393 738 406 730 q 420 721 428 706 q 436 690 436 666 q 436 631 418 588 q 399 546 368 502 q 338 458 298 416 q 259 375 216 343 q 174 311 132 292 q 91 272 56 272 q 39 272 27 279 q 15 286 8 298 q 1 309 -2 324 q -5 338 -5 353 q -5 390 14 433 q 33 476 60 518 q 87 561 116 600 q 145 640 165 671 z m 335 714 q 309 707 283 702 q 257 697 231 690 q 216 686 196 666 q 175 645 152 614 q 130 583 108 546 q 87 510 70 474 q 52 438 42 406 q 31 375 31 356 q 31 337 39 324 q 47 310 69 310 q 97 310 133 328 q 169 345 206 373 q 244 401 280 438 q 315 474 343 512 q 371 550 388 586 q 405 623 405 652 q 405 672 400 683 q 395 694 386 700 q 377 706 364 708 q 351 711 335 714 z"},"F":{"x_min":0,"x_max":654,"ha":654,"o":"m 554 389 q 531 378 506 379 q 482 380 458 380 q 404 380 351 376 q 298 373 244 367 q 221 328 199 288 q 177 249 157 208 q 144 182 134 156 q 125 130 110 104 l 92 92 l 83 109 q 83 121 94 146 q 104 171 121 205 q 138 239 160 280 q 183 320 207 362 l 150 353 q 145 352 142 351 q 138 350 133 350 q 130 350 126 353 q 121 356 121 360 q 121 372 128 374 q 136 375 145 377 l 222 388 q 247 431 272 472 q 297 514 319 550 q 341 586 358 614 q 375 642 384 658 q 387 663 390 669 q 393 675 400 675 q 405 675 410 670 q 415 666 415 661 q 415 658 412 653 q 410 648 408 645 q 373 580 336 518 q 298 455 260 392 q 319 400 378 404 q 436 409 496 409 q 513 409 528 404 q 542 400 554 389 z m 711 756 q 619 756 529 744 q 439 731 350 710 q 262 690 174 663 q 87 636 1 607 l -11 609 l -9 621 q 20 645 76 666 q 133 688 205 707 q 277 726 357 740 q 437 755 512 766 q 588 777 652 782 q 717 788 757 788 q 767 788 787 788 q 807 787 828 786 q 850 785 868 782 q 887 780 895 776 l 907 761 q 902 747 892 744 q 881 742 869 742 q 830 742 791 749 q 752 756 711 756 z"},"k":{"x_min":0,"x_max":328,"ha":328,"o":"m -25 332 q -21 341 -14 356 q -7 371 1 386 q 9 402 17 416 q 25 430 31 438 q 42 443 66 472 q 91 502 122 544 q 153 586 187 634 q 221 681 251 722 q 281 762 303 788 q 325 815 333 816 l 341 811 l 342 802 q 342 800 342 796 q 341 793 341 791 q 323 764 300 743 q 278 722 260 696 q 216 639 174 583 q 132 527 93 468 q 97 470 112 476 q 128 481 148 488 q 168 496 190 504 q 212 513 231 520 q 250 527 262 532 q 275 536 276 536 q 281 536 285 532 q 289 527 291 524 q 237 497 182 474 q 126 451 72 426 q 103 399 122 381 q 141 363 160 350 q 178 338 202 328 q 225 319 264 308 q 256 300 247 296 q 238 291 227 291 q 208 291 184 304 q 160 318 136 336 q 111 355 89 374 q 67 394 51 406 q 31 386 17 362 q 3 337 -18 317 z"},"u":{"x_min":0,"x_max":362,"ha":362,"o":"m 373 379 q 361 365 334 350 q 307 335 280 330 q 252 324 231 332 q 210 340 210 371 q 210 383 214 394 q 217 406 219 418 q 201 408 174 391 q 148 374 120 358 q 91 342 64 330 q 36 319 17 319 q 3 319 -5 326 q -13 333 -13 347 q -13 362 -6 380 q 2 397 12 414 q 23 431 36 446 q 48 462 57 473 l 64 473 l 69 464 q 53 432 36 404 q 19 375 6 341 q 36 345 78 366 q 119 387 158 411 q 197 435 225 454 q 253 473 255 473 l 265 469 q 270 466 270 458 q 270 456 264 445 q 259 434 252 420 q 246 407 240 393 q 235 379 235 370 q 235 355 254 354 q 274 353 298 358 q 323 362 345 370 q 367 377 373 379 z"},"U":{"x_min":0,"x_max":683,"ha":683,"o":"m 452 167 q 457 163 462 158 q 467 154 467 147 q 466 139 459 134 q 452 128 445 125 q 432 126 426 136 q 420 146 420 157 q 420 188 434 226 q 449 264 472 304 q 494 344 520 384 q 547 423 570 458 q 594 493 611 520 q 628 547 632 563 q 606 539 563 500 q 520 461 468 416 q 415 372 358 326 q 300 281 244 244 q 189 207 140 184 q 90 161 55 161 q 17 161 4 182 q -9 204 -9 238 q -9 265 2 302 q 14 340 32 382 q 51 423 75 466 q 99 510 124 548 q 150 587 174 618 q 199 648 219 665 l 236 665 l 233 648 q 217 629 195 598 q 173 568 150 530 q 126 493 104 452 q 81 411 62 372 q 44 332 33 297 q 22 262 22 237 q 22 220 29 206 q 36 192 56 192 q 91 192 142 218 q 193 243 253 286 q 313 328 378 382 q 443 435 506 492 q 569 548 626 602 q 684 656 728 698 q 771 740 798 766 q 825 792 828 792 l 837 788 q 842 783 842 777 q 842 775 839 769 q 836 763 834 761 q 778 690 724 620 q 671 551 622 478 q 572 405 529 328 q 486 251 452 167 z"},"o":{"x_min":0,"x_max":278,"ha":278,"o":"m 191 463 q 190 435 170 405 q 150 375 121 350 q 92 326 60 310 q 27 295 0 295 q -12 295 -21 301 q -30 307 -30 321 q -30 339 -18 358 q -5 377 13 395 q 31 413 50 428 q 69 443 83 452 l 77 476 q 81 484 104 488 q 128 492 156 494 q 183 495 209 495 q 235 495 246 495 q 255 495 274 494 q 292 492 310 488 q 329 484 343 476 q 357 469 357 456 q 357 451 353 446 q 349 441 344 441 q 338 441 330 450 q 322 459 313 461 q 279 469 248 469 q 219 469 191 463 z m 160 460 l 153 461 q 127 452 102 438 q 76 424 54 406 q 32 387 15 364 q -2 341 -11 314 q 16 320 43 331 q 70 342 94 358 q 117 375 136 396 q 154 418 163 446 z"},"N":{"x_min":0,"x_max":707,"ha":707,"o":"m 142 266 q 163 289 204 330 q 244 372 296 422 q 347 471 404 522 q 462 573 517 615 q 572 657 620 684 q 668 710 700 710 q 712 710 720 702 q 728 693 728 681 q 728 654 706 606 q 684 557 651 498 q 618 438 580 372 q 542 307 509 246 q 476 184 454 132 q 432 81 432 49 q 432 24 451 8 q 447 2 442 -4 q 436 -11 428 -11 q 420 -11 414 -6 q 409 0 405 8 q 401 16 399 24 q 397 33 397 39 q 397 68 412 112 q 426 155 449 205 q 472 255 500 308 q 529 362 558 412 q 586 461 610 502 q 635 544 651 571 q 666 597 680 622 q 693 647 701 676 q 693 681 685 681 q 683 681 676 679 q 670 677 668 676 q 617 657 564 621 q 512 585 459 538 q 406 492 354 439 q 301 386 252 333 q 202 280 156 232 q 110 184 70 147 l 55 145 l 47 161 q 51 180 71 216 q 91 251 119 296 q 147 341 180 392 q 213 444 244 494 q 274 545 298 592 q 322 639 332 675 q 293 673 252 652 q 211 632 172 604 q 132 576 96 546 q 59 515 29 493 l 14 483 l 7 496 q 12 511 32 532 q 53 552 82 575 q 112 598 147 620 q 182 643 215 662 q 248 680 276 691 q 304 702 319 702 q 333 702 344 696 q 355 690 355 673 q 355 651 342 619 q 329 587 308 550 q 288 513 264 472 q 239 432 215 394 q 191 357 170 324 q 150 292 139 269 z"},"+":{"x_min":0,"x_max":390,"ha":390,"o":"m 183 429 q 193 428 212 428 q 230 428 249 426 q 268 423 283 418 q 298 413 303 403 q 298 396 290 394 q 282 391 274 391 q 248 391 221 394 q 194 396 167 397 q 163 389 153 366 q 143 344 131 320 q 119 297 108 278 q 96 260 89 260 q 83 260 78 264 q 74 268 74 274 q 74 277 82 294 q 90 310 100 330 q 110 351 119 369 q 128 387 131 393 q 117 397 104 396 q 90 396 76 396 q 65 396 55 398 q 45 399 35 405 q 38 415 53 420 q 68 424 87 426 q 106 427 124 427 q 143 427 152 428 q 168 464 182 501 q 197 538 217 573 l 227 576 l 234 566 q 231 550 225 532 q 219 515 212 497 q 204 479 196 462 q 189 444 183 429 z"},"G":{"x_min":0,"x_max":687,"ha":687,"o":"m 743 672 q 724 655 693 629 q 662 603 624 574 q 587 546 546 517 q 504 488 464 466 q 424 443 389 428 q 354 414 329 414 q 305 414 288 428 q 271 441 271 467 q 271 497 288 530 q 305 562 334 593 q 362 624 398 652 q 434 679 472 700 q 509 721 545 734 q 581 746 610 746 q 627 746 644 744 q 662 741 677 734 q 692 726 702 714 q 712 701 715 681 q 742 706 769 732 q 796 758 826 779 l 843 779 l 845 762 q 839 748 822 722 q 804 695 780 660 q 756 626 726 586 q 697 547 668 507 q 638 467 610 428 q 581 390 559 358 q 537 327 522 304 q 508 282 506 274 q 516 268 529 262 q 542 255 554 248 q 566 240 575 230 q 584 221 587 208 l 568 202 q 545 212 528 227 q 510 242 487 252 q 464 229 438 198 q 413 168 385 136 q 357 103 326 71 q 296 39 263 14 q 230 -10 196 -26 q 161 -41 124 -41 q 93 -41 70 -27 q 48 -13 33 10 q 18 32 10 60 q 3 87 3 114 q 3 166 22 212 q 41 257 74 290 q 108 324 153 344 q 198 363 250 363 q 311 363 368 340 q 424 318 478 293 q 550 384 614 478 q 679 573 748 667 z m 457 265 q 440 278 414 290 q 387 302 358 311 q 328 320 299 326 q 270 331 249 331 q 204 331 165 314 q 126 298 96 270 q 67 241 50 202 q 34 162 34 117 q 34 97 39 74 q 44 52 55 34 q 66 15 82 2 q 99 -10 123 -10 q 151 -10 182 4 q 213 19 244 43 q 276 67 308 97 q 339 127 366 158 q 394 188 418 216 q 441 245 457 265 z m 701 669 q 689 684 682 694 q 674 703 665 709 q 656 715 643 717 q 630 719 608 719 q 582 719 549 708 q 516 696 482 677 q 447 658 414 632 q 381 607 356 578 q 330 550 314 520 q 298 490 298 463 q 298 452 306 446 q 315 441 325 441 q 348 441 380 454 q 412 466 448 486 q 484 507 521 532 q 558 557 592 582 q 626 608 654 631 q 683 654 701 669 z"},"q":{"x_min":0,"x_max":328,"ha":328,"o":"m -26 -29 q -36 -18 -42 -6 q -48 7 -48 21 q -48 49 -32 84 q -16 120 10 158 q 35 197 67 237 q 99 277 130 314 q 160 352 187 384 q 214 417 230 441 q 212 430 183 412 q 154 393 122 376 q 89 359 58 346 q 28 334 9 334 q 0 334 -6 340 q -11 347 -11 355 q -11 373 8 395 q 27 417 53 436 q 79 454 106 467 q 134 480 151 480 q 168 480 178 470 q 188 460 193 445 q 198 448 212 457 q 226 466 241 476 q 256 485 270 492 q 283 500 287 500 l 297 495 q 301 489 301 486 q 301 478 277 450 q 253 421 216 379 q 180 337 138 285 q 95 233 58 178 q 22 123 -2 70 q -26 16 -26 -29 z m 174 435 q 169 443 162 450 q 155 456 145 456 q 130 456 110 446 q 90 436 71 421 q 52 406 36 390 q 21 373 15 360 q 30 360 52 368 q 75 377 98 388 q 121 400 142 413 q 162 426 174 435 z"},"d":{"x_min":0,"x_max":306,"ha":306,"o":"m 211 458 q 194 444 168 420 q 143 396 114 373 q 86 350 58 334 q 30 317 9 317 q -1 317 -8 322 q -16 328 -16 339 q -16 362 0 382 q 16 402 40 418 q 65 435 94 448 q 123 461 149 472 q 175 482 194 490 q 214 497 219 502 q 284 565 338 642 q 391 718 442 793 q 445 798 450 805 q 455 812 461 812 q 466 812 470 809 q 475 806 475 800 q 469 783 458 768 q 448 753 437 739 q 276 519 151 277 q 135 246 121 216 q 107 186 88 156 l 74 151 l 70 168 q 97 242 139 312 q 181 383 217 453 z m 15 347 q 30 351 50 362 q 70 373 90 386 q 109 400 125 415 q 141 430 149 444 q 111 427 76 404 q 41 382 15 347 z"},"1":{"x_min":0,"x_max":436,"ha":436,"o":"m 158 319 q 209 330 260 340 q 310 349 363 349 q 376 349 387 342 q 398 336 408 328 q 376 324 335 320 q 294 316 252 310 q 211 303 173 292 q 135 280 110 262 l 108 275 q 84 270 59 261 q 34 252 8 243 q -17 234 -42 226 q -67 219 -90 217 l -100 224 q -101 227 -101 232 q -101 239 -92 242 q -84 245 -79 247 q -62 252 -29 262 q 4 271 38 283 q 73 295 101 308 q 129 321 135 335 q 158 385 187 433 q 216 481 248 528 q 280 575 313 620 q 346 666 378 711 q 371 711 352 702 q 333 694 307 680 q 281 667 252 651 q 222 635 194 622 q 165 608 141 598 q 117 589 103 589 l 91 598 l 98 611 q 178 649 254 686 q 331 724 407 769 q 423 779 438 790 q 453 801 470 809 l 485 804 l 486 788 l 479 779 q 458 754 429 718 q 400 682 368 641 q 337 600 305 556 q 273 511 244 468 q 216 426 194 388 q 171 349 158 319 z"},"5":{"x_min":0,"x_max":480,"ha":480,"o":"m -20 296 q -20 285 -20 274 q -19 262 -14 252 q -10 243 -2 237 q 6 231 21 231 q 45 231 81 240 q 117 248 156 264 q 195 279 234 300 q 273 321 304 346 q 334 372 354 400 q 373 428 373 458 q 373 485 352 501 q 331 517 300 528 q 269 538 232 544 q 196 551 165 559 q 134 567 113 578 q 92 589 92 608 q 92 618 98 631 q 103 644 111 656 q 119 669 128 680 q 136 692 142 701 q 125 702 110 694 q 95 686 78 686 q 69 686 64 688 q 63 690 63 694 q 63 701 81 709 q 99 717 122 726 q 145 734 168 744 q 190 754 199 766 q 202 770 206 774 q 209 777 214 777 q 218 777 219 775 l 224 755 q 268 764 312 774 q 357 785 402 794 q 447 803 492 809 q 538 815 583 815 q 592 815 604 814 q 616 813 626 810 q 636 806 643 798 q 650 791 650 778 q 650 764 638 756 q 627 749 616 744 q 613 748 613 753 q 613 761 616 768 q 619 774 619 782 q 605 785 592 787 q 578 789 564 789 q 522 789 478 782 q 434 776 390 766 q 347 757 304 746 q 260 735 220 726 q 209 724 192 710 q 176 695 160 676 q 143 658 132 640 q 120 621 120 611 q 120 601 141 594 q 162 588 193 581 q 224 574 261 566 q 298 557 329 543 q 360 529 381 508 q 402 487 402 456 q 402 423 383 391 q 364 359 333 330 q 302 301 262 276 q 223 252 183 234 q 143 216 106 206 q 68 196 40 196 q 28 196 14 198 q -1 201 -14 208 q -26 214 -34 224 q -42 235 -42 250 q -42 264 -36 276 q -29 287 -20 296 z"}}}
